<svg width="130" height="26" viewBox="0 0 130 26" fill="none" xmlns="http://www.w3.org/2000/svg">
<g id="McAfee/Landscape">
<path id="Fill 1" fill-rule="evenodd" clip-rule="evenodd" d="M64.6248 16.4287L61.2485 14.4225L60.9976 14.8154C60.228 16.0245 59.1761 16.638 57.8727 16.6369C55.6398 16.6358 53.9564 14.9507 53.9575 12.7172C53.9592 10.4843 55.6437 8.80142 57.8772 8.80254C59.1991 8.80367 60.1921 9.38407 61.0026 10.6308L61.2547 11.0181L64.6467 9.00743L64.3537 8.58307C62.7332 6.23562 60.6153 5.09446 57.8794 5.09277C52.7074 5.09053 49.9143 9.01753 49.9126 12.7144C49.9104 16.4118 52.6984 20.3427 57.8704 20.3456C60.5059 20.3467 62.9919 19.0068 64.3599 16.8474L64.6248 16.4287Z" fill="#C01818"/>
<path id="Fill 3" fill-rule="evenodd" clip-rule="evenodd" d="M74.0452 8.11198L75.9346 12.8563L72.1294 12.8535L74.0452 8.11198ZM64.4563 20.3481L69.1242 20.3509L70.5113 16.9004L77.5171 16.9038L78.9002 20.3559L83.5884 20.3587L75.2258 0.136034L71.0619 0.133789L72.1705 2.81466L64.4563 20.3481Z" fill="#C01818"/>
<path id="Fill 5" fill-rule="evenodd" clip-rule="evenodd" d="M85.5208 20.3601L89.6173 20.3623L89.6224 11.2863L92.2932 11.2886L92.2954 7.48113L89.6246 7.47945L89.6252 5.67985C89.6252 4.90747 90.1427 4.08738 91.1009 4.08794C91.6274 4.08851 91.9451 4.17832 92.2623 4.31416L92.7181 4.51062L94.42 0.795235L93.9294 0.594843C93.1683 0.282749 92.1079 0.170485 91.3687 0.169923C89.5107 0.168801 87.98 0.77615 86.9393 1.92574C86.0311 2.92938 85.5304 4.32538 85.5292 5.85554L85.5281 7.47664L83.7195 7.47608L83.7173 11.2841L85.5264 11.2846L85.5208 20.3601Z" fill="#C01818"/>
<path id="Fill 7" fill-rule="evenodd" clip-rule="evenodd" d="M30.6008 0.0175781V20.3295L35.0515 20.3323L35.0583 8.71974L39.372 11.9339L43.6897 8.71974V20.3374L48.1343 20.3396L48.1455 0.0175781L39.3754 6.64453L30.6008 0.0175781Z" fill="#C01818"/>
<path id="Fill 9" fill-rule="evenodd" clip-rule="evenodd" d="M97.9457 10.8849C98.4807 9.4996 99.6347 8.69073 101.126 8.6913C102.632 8.69186 103.808 9.48444 104.432 10.8883L97.9457 10.8849ZM101.519 5.16113C96.363 5.15833 93.5777 9.07523 93.5754 12.7609C93.5738 16.4476 96.354 20.3662 101.51 20.369H101.513H101.516C103.88 20.3437 106.097 19.266 107.814 17.3233L104.473 15.5007C103.616 16.378 102.576 16.8394 101.428 16.8389C99.7455 16.8377 98.2535 15.7162 97.8634 14.25L109.004 14.2562L109.005 13.2442C109.008 7.67192 104.63 5.16338 101.519 5.16113Z" fill="#C01818"/>
<path id="Fill 11" fill-rule="evenodd" clip-rule="evenodd" d="M114.692 10.8959C115.226 9.51002 116.38 8.70115 117.871 8.70171C119.378 8.70284 120.554 9.49486 121.178 10.8993L114.692 10.8959ZM118.264 5.17188C113.108 5.16907 110.324 9.08541 110.322 12.771C110.319 16.4578 113.099 20.3764 118.256 20.3797H118.259H118.261C120.626 20.3539 122.843 19.2762 124.559 17.3335L121.218 15.5114C120.361 16.3888 119.322 16.8502 118.174 16.8496C116.491 16.8485 114.999 15.727 114.609 14.2608L125.75 14.2664L125.751 13.2549C125.754 7.68267 121.375 5.17356 118.264 5.17188Z" fill="#C01818"/>
<path id="Fill 13" fill-rule="evenodd" clip-rule="evenodd" d="M125.227 4.38086H126.962V4.70474H126.28V6.52286H125.906V4.70474H125.227V4.38086Z" fill="#C01818"/>
<path id="Fill 15" fill-rule="evenodd" clip-rule="evenodd" d="M127.457 4.38086H127.984L128.575 6.05809H128.581L129.157 4.38086H129.679V6.52286H129.322V4.86977H129.316L128.723 6.52286H128.414L127.819 4.86977H127.814V6.52286H127.457V4.38086Z" fill="#C01818"/>
<path id="Fill 18" fill-rule="evenodd" clip-rule="evenodd" d="M4.50965 17.3437V7.05131L11.0025 10.0538V5.08781L0 0V20.2221L11.0025 25.3145V20.3479L4.50965 17.3437Z" fill="#C01818"/>
<path id="Fill 21" fill-rule="evenodd" clip-rule="evenodd" d="M17.4952 17.3437V7.05131L11.0024 10.0538V5.08781L22.0049 0V20.2222L11.0024 25.3145V20.3479L17.4952 17.3437Z" fill="#C01818"/>
</g>
</svg>
