<svg width="230" height="230" viewBox="0 0 230 230" fill="none" xmlns="http://www.w3.org/2000/svg">
<g clip-path="url(#clip0_1038_24461)">
<g clip-path="url(#clip1_1038_24461)">
<path d="M114.764 210.283C167.509 210.283 210.266 167.526 210.266 114.781C210.266 62.0363 167.509 19.2793 114.764 19.2793C62.0196 19.2793 19.2626 62.0363 19.2626 114.781C19.2626 167.526 62.0196 210.283 114.764 210.283Z" fill="#F9F1EC"/>
<path d="M118.68 74.7212L105.271 64.9692C104.65 64.5149 103.897 64.2734 103.126 64.2734H66.8667C66.0905 64.2734 65.4407 64.8484 65.343 65.6189L64.124 75.4169L52.0145 172.971C51.8305 174.438 52.9747 175.726 54.4467 175.726H181.085L193.194 78.1597C193.372 76.6992 192.24 75.4112 190.768 75.4112H120.813C120.043 75.4112 119.295 75.1697 118.668 74.7154L118.68 74.7212Z" fill="#9694FF"/>
<path d="M96.4275 47.0118C96.4275 41.9 100.568 40.8535 105.691 40.8535H163.794C168.906 40.8535 173.046 44.9935 173.046 50.1053C173.046 56.0738 173.035 130.059 173.046 131.675C173.046 136.787 168.906 140.927 163.783 140.927H105.674C100.562 140.927 96.4218 136.787 96.4218 131.675C96.4333 122.222 96.4333 48.0468 96.4218 47.0175L96.4275 47.0118Z" fill="#F9F1EC"/>
<path d="M95.0992 131.672H95.0992C95.1107 130.334 95.105 80.0413 95.0992 58.5635V58.5634V50.1109C95.0992 44.5357 99.6382 39.9967 105.213 39.9967H163.323C168.898 39.9967 173.437 44.5357 173.437 50.1109V58.4657C173.437 65.341 173.436 75.1653 173.435 85.394C173.432 107.161 173.429 130.76 173.437 131.666L173.437 131.669C173.437 137.244 168.907 141.78 163.329 141.789L95.0992 131.672ZM95.0992 131.672V131.675M95.0992 131.672V131.675M95.0992 131.675C95.0992 137.25 99.6443 141.789 105.225 141.789H163.311L95.0992 131.675ZM105.219 41.7159H105.266L105.283 41.7102H163.346C167.971 41.7102 171.735 45.4742 171.735 50.0994V58.4541C171.729 79.9524 171.718 130.289 171.735 131.671C171.734 136.295 167.965 140.058 163.334 140.058H105.231C100.6 140.058 96.8306 136.294 96.83 131.676C96.8378 130.743 96.835 107.163 96.8324 85.4249C96.8311 75.2179 96.83 65.4171 96.83 58.5577V50.1052C96.83 45.48 100.594 41.7159 105.219 41.7159Z" fill="#9694FF" stroke="#9694FF" stroke-width="0.575"/>
<path d="M156.894 60.1844C156.894 55.0726 152.754 50.9326 147.643 50.9326H89.5333C84.4215 50.9326 80.2815 55.0726 80.2815 60.1844C80.2815 66.1529 80.293 140.132 80.2815 141.754C80.2815 146.866 84.4215 151.006 89.5447 151.006H147.648C152.766 151.006 156.912 146.866 156.912 141.754C156.895 140.138 156.912 66.1529 156.912 60.1844H156.894Z" fill="white"/>
<path d="M146.734 61.2031H90.1486C88.6478 61.2031 87.4288 62.4221 87.4288 63.9229V67.3844C87.4288 68.8851 88.6478 70.1041 90.1486 70.1041H146.734C148.235 70.1041 149.454 68.8851 149.454 67.3844V63.9229C149.454 62.4221 148.235 61.2031 146.734 61.2031Z" fill="#ECE1FF"/>
<path d="M145.504 74.2959H91.3791C89.1998 74.2959 87.4288 76.0669 87.4288 78.2461V89.1251C87.4288 91.3044 89.1998 93.0754 91.3791 93.0754H145.504C147.683 93.0754 149.454 91.3044 149.454 89.1251V78.2461C149.454 76.0669 147.683 74.2959 145.504 74.2959Z" fill="#F5EDFF"/>
<path d="M165.128 85.8936H90.7465C89.9703 85.8936 89.2113 85.6463 88.5845 85.1863L76.291 76.1301C75.6642 75.6701 74.911 75.4229 74.129 75.4229H38.364C37.2198 75.4229 36.3458 76.4406 36.524 77.5676L51.2957 173.265C51.5142 174.685 52.739 175.732 54.1765 175.732H181.09L167.544 87.9636C167.359 86.7733 166.336 85.8936 165.128 85.8936Z" fill="#DAE2FE"/>
<path d="M110.181 164.392C128.8 164.392 143.888 149.218 143.888 130.496C143.888 111.774 128.794 96.5996 110.181 96.5996C91.5687 96.5996 76.475 111.774 76.475 130.496C76.475 149.218 91.5687 164.392 110.181 164.392Z" fill="#BEBEFC"/>
<path d="M127.374 132.112L112.458 147.264C112.211 147.517 111.924 147.724 111.613 147.873V108.549H108.738V147.735C108.514 147.609 108.313 147.459 108.14 147.281L92.9715 132.112L90.9418 134.142L106.11 149.311C107.094 150.294 108.387 150.898 109.762 151.018V151.047H110.319C111.912 151.041 113.401 150.415 114.517 149.276L129.427 134.131L127.38 132.112H127.374Z" fill="#4258FF"/>
</g>
<path d="M47.2542 135.781C47.3289 135.672 47.5014 135.672 47.5589 135.787C49.7554 139.519 52.8029 142.681 56.4657 145.01C56.5749 145.085 56.5749 145.257 56.4657 145.315C52.7339 147.511 49.5714 150.559 47.2427 154.222C47.1679 154.331 46.9954 154.331 46.9379 154.222C44.7414 150.49 41.6939 147.327 38.0312 144.999C37.9219 144.924 37.9219 144.751 38.0369 144.694C41.7687 142.497 44.9312 139.45 47.2599 135.787H47.2542V135.781Z" fill="#24BC98"/>
<path d="M179.395 72.2992C179.487 72.3625 179.487 72.5005 179.395 72.558C176.336 74.4095 173.754 76.9625 171.885 80.0042C171.822 80.0962 171.684 80.0962 171.627 80.0042C169.775 76.9452 167.222 74.3635 164.18 72.4947C164.088 72.4315 164.088 72.2935 164.18 72.236C167.239 70.3845 169.821 67.8315 171.69 64.7897C171.753 64.6977 171.891 64.6977 171.949 64.7897C173.8 67.8487 176.353 70.4305 179.395 72.2992Z" fill="#4258FF"/>
<path d="M194 60.328C193.914 60.328 193.839 60.3165 193.764 60.2935C190.918 59.6093 187.87 59.6093 184.984 60.305C184.679 60.374 184.374 60.2763 184.179 60.0578C183.983 59.8508 183.914 59.5403 183.995 59.2585C184.679 56.4123 184.679 53.3648 183.983 50.4783C183.92 50.1735 184.012 49.8688 184.231 49.6675C184.438 49.472 184.748 49.403 185.018 49.4835C187.865 50.1678 190.912 50.1678 193.799 49.472H193.81C194.103 49.403 194.402 49.5008 194.598 49.7193C194.793 49.9263 194.862 50.2368 194.782 50.507C194.098 53.3533 194.098 56.4008 194.793 59.2873C194.857 59.592 194.765 59.9025 194.546 60.098C194.391 60.236 194.195 60.305 193.994 60.305V60.3165L194 60.328ZM185.352 59.5805L185.34 59.6323C185.34 59.6323 185.346 59.5978 185.352 59.5805ZM194.075 58.9308L194.126 58.9423C194.126 58.9423 194.092 58.9423 194.075 58.9308ZM189.383 58.3788C190.676 58.3788 191.97 58.5053 193.241 58.7468C192.746 56.2168 192.746 53.5833 193.241 51.0303C190.705 51.5248 188.066 51.5248 185.524 51.0303C186.019 53.5603 186.019 56.2053 185.524 58.741C186.789 58.4938 188.083 58.373 189.377 58.373H189.383V58.3788ZM184.65 50.8808C184.65 50.8808 184.685 50.8808 184.702 50.8923L184.65 50.8808ZM193.436 50.1908C193.436 50.1908 193.436 50.2253 193.425 50.2425L193.436 50.1908Z" fill="#49D9B9"/>
</g>
<defs>
<clipPath id="clip0_1038_24461">
<rect width="230" height="230" fill="white"/>
</clipPath>
<clipPath id="clip1_1038_24461">
<rect width="230" height="230" fill="white"/>
</clipPath>
</defs>
</svg>
