<svg width="230" height="230" viewBox="0 0 230 230" fill="none" xmlns="http://www.w3.org/2000/svg">
<g clip-path="url(#clip0_1237_947)">
<g clip-path="url(#clip1_1237_947)">
<path d="M216.223 108.376C216.225 95.0507 213.602 81.8551 208.504 69.5432C203.406 57.2313 195.933 46.0442 186.511 36.621C177.088 27.1978 165.902 19.723 153.591 14.6235C141.28 9.52396 128.084 6.89964 114.759 6.90039C87.8511 6.90039 62.0455 17.589 43.0185 36.6149C23.9915 55.6409 13.3014 81.4459 13.2999 108.353C13.2822 123.411 16.6233 138.282 23.0799 151.885C29.5366 165.487 38.9461 177.478 50.6231 186.985C93.9666 183.644 137.69 184.863 181.464 184.811C192.391 175.301 201.149 163.555 207.145 150.369C213.142 137.182 216.237 122.862 216.223 108.376Z" fill="#F9F1EC"/>
<path d="M70.2765 77.8672C64.124 77.2922 53.9523 82.6339 49.5421 85.4342C35.7881 94.1627 35.5867 102.684 35.0577 111.355C34.592 118.997 34.5287 135.66 35.3625 143.164C36.1962 150.668 30.1875 168.033 30.1875 168.033L91.7125 167.619C91.7125 167.619 91.6377 154.078 92.115 149.219C93.4375 135.597 98.1526 119.198 97.9858 118.698C97.8191 118.198 106.398 114.552 105.823 110.976C104.489 107.641 102.563 98.2452 100.763 94.6629C96.6805 86.5497 86.1006 80.6962 81.4316 79.5289C77.7561 78.7179 74.0287 78.1627 70.2765 77.8672Z" fill="#68E8CA"/>
<path d="M55.1254 133.158C48.2254 124.039 43.4529 112.717 35.5754 105.185C34.6094 109.066 35.1499 141.168 35.3684 143.163C36.2021 150.673 30.1934 168.032 30.1934 168.032L57.6093 167.457C56.3098 155.957 55.0219 144.716 55.1254 133.158Z" fill="#40D4B0"/>
<path d="M224.848 176.996C224.848 160.321 176.548 146.803 116.921 146.803C57.2931 146.803 8.99316 160.321 8.99316 176.996V186.161C8.99316 202.836 57.2931 216.349 116.921 216.349C176.548 216.349 224.848 202.831 224.848 186.161V176.996Z" fill="#706E6E"/>
<path d="M116.696 205.855C176.02 205.855 224.112 192.394 224.112 175.788C224.112 159.183 176.02 145.722 116.696 145.722C57.3722 145.722 9.28052 159.183 9.28052 175.788C9.28052 192.394 57.3722 205.855 116.696 205.855Z" fill="#D1CCCC"/>
<path d="M143.813 165.387C149.517 163.984 151.478 163.662 157.383 162.225C160.258 161.523 158.297 162.012 161.264 161.305C161.339 161.286 161.412 161.261 161.483 161.23C163.266 160.506 162.11 158.723 160.207 158.424L132.79 153.249C132.716 153.249 77.9067 165.261 77.9067 165.261C77.8151 165.29 77.7356 165.349 77.6803 165.428C77.6249 165.506 77.5969 165.601 77.6001 165.697C77.6034 165.793 77.6379 165.886 77.6984 165.961C77.7589 166.035 77.8421 166.088 77.9355 166.112L111.86 172.77C120.198 171.068 134.976 167.561 143.813 165.387Z" fill="#B8B2B2"/>
<path d="M161.437 147.201L83.8119 163.117C83.4901 163.181 83.1988 163.35 82.9834 163.598C82.768 163.845 82.6407 164.158 82.6216 164.485C82.5997 164.847 82.71 165.205 82.9322 165.491C83.1543 165.778 83.4732 165.974 83.8292 166.043L111.429 171.368C111.632 171.411 111.842 171.411 112.044 171.368L185.282 154.607C185.595 154.533 185.876 154.361 186.083 154.115C186.29 153.87 186.412 153.564 186.432 153.244C186.454 152.883 186.343 152.526 186.121 152.24C185.899 151.954 185.58 151.759 185.225 151.691L161.966 147.235C161.793 147.193 161.614 147.181 161.437 147.201Z" fill="#706E6E"/>
<path d="M111.78 170.142C111.68 170.141 111.583 170.107 111.505 170.044C111.427 169.982 111.372 169.895 111.349 169.797C111.324 169.682 111.345 169.563 111.408 169.463C111.47 169.363 111.568 169.291 111.682 169.263L185.012 152.588C185.069 152.575 185.128 152.574 185.185 152.584C185.243 152.594 185.298 152.616 185.347 152.647C185.396 152.679 185.439 152.72 185.472 152.768C185.505 152.816 185.529 152.87 185.541 152.927C185.554 152.984 185.557 153.042 185.547 153.1C185.538 153.157 185.517 153.212 185.486 153.262C185.455 153.311 185.414 153.354 185.366 153.387C185.318 153.42 185.264 153.444 185.207 153.456L111.878 170.131L111.78 170.142Z" fill="#A19C9C"/>
<path d="M110.181 168.383C109.861 168.383 109.542 168.354 109.227 168.296L87.8254 164.542C87.6904 164.518 87.5681 164.448 87.4806 164.342C87.3931 164.237 87.3463 164.104 87.3483 163.967C87.3455 163.832 87.39 163.701 87.474 163.596C87.5581 163.491 87.6763 163.419 87.8081 163.392L127.276 155.1C127.39 155.078 127.509 155.101 127.606 155.164C127.704 155.227 127.773 155.326 127.799 155.439C127.823 155.555 127.8 155.676 127.736 155.775C127.671 155.874 127.57 155.944 127.455 155.968L89.5792 163.926L109.376 167.376C109.973 167.484 110.584 167.472 111.176 167.342L127.276 163.8C127.391 163.776 127.511 163.798 127.61 163.861C127.709 163.925 127.779 164.025 127.805 164.139C127.818 164.196 127.819 164.255 127.809 164.313C127.799 164.37 127.777 164.425 127.746 164.474C127.714 164.523 127.673 164.566 127.625 164.599C127.577 164.632 127.523 164.656 127.466 164.668L111.366 168.204C110.979 168.307 110.582 168.367 110.181 168.383Z" fill="#A19C9C"/>
<path d="M93.7481 165.6C93.6458 165.599 93.547 165.563 93.4677 165.498C93.3883 165.433 93.3331 165.344 93.3111 165.244C93.2891 165.128 93.3136 165.008 93.3792 164.91C93.4449 164.812 93.5464 164.744 93.6619 164.721L127.288 157.821C127.345 157.809 127.404 157.809 127.461 157.819C127.518 157.83 127.572 157.853 127.621 157.885C127.67 157.917 127.711 157.958 127.744 158.006C127.777 158.054 127.799 158.109 127.811 158.166C127.824 158.223 127.825 158.282 127.814 158.339C127.803 158.397 127.781 158.451 127.749 158.5C127.717 158.549 127.675 158.591 127.627 158.623C127.578 158.656 127.523 158.678 127.466 158.689L93.8401 165.589L93.7481 165.6Z" fill="#A19C9C"/>
<path d="M101.108 166.871C101.005 166.87 100.906 166.834 100.827 166.767C100.749 166.701 100.696 166.61 100.677 166.509C100.665 166.452 100.665 166.393 100.676 166.336C100.688 166.279 100.711 166.225 100.743 166.176C100.776 166.128 100.818 166.087 100.867 166.055C100.916 166.023 100.97 166.002 101.027 165.991L127.282 160.926C127.398 160.905 127.517 160.931 127.614 160.998C127.71 161.065 127.777 161.167 127.8 161.282C127.821 161.397 127.797 161.516 127.731 161.613C127.665 161.71 127.564 161.777 127.449 161.8L101.194 166.86L101.108 166.871Z" fill="#A19C9C"/>
<path d="M153.795 155.675C153.91 153.893 154.054 152.116 154.203 150.339L140.881 147.096C133.871 143.928 118.197 136.982 116.018 135.021C113.838 133.061 107.623 119.755 104.966 112.021C100.763 114.764 94.0413 115.845 89.4873 118.346L100.28 140.455C101.327 143.618 105.076 146.245 108.031 147.786L118.001 148.994L138.046 159.591C138.046 159.591 145.055 159.643 153.617 159.683C153.657 158.361 153.715 157.015 153.795 155.675Z" fill="#ECCEC3"/>
<path d="M97.9514 114.816L98.4919 116.771C101.097 116.553 103.612 115.711 105.823 114.316C105.645 113.649 105.093 112.706 104.966 112.016C102.686 113.088 100.344 114.023 97.9514 114.816Z" fill="#D8AB95"/>
<path d="M36.7252 118.323C35.4372 111.538 53.9752 107.289 54.9354 112.93C57.5287 128.455 58.9892 136.614 60.9442 143.163C63.2442 142.456 92.8107 147.039 97.9512 148.2C103.879 149.54 118.766 145.492 120.704 145.325C122.642 145.159 135.493 152.881 136.655 153.203C137.816 153.525 138.839 155.842 135.838 155.94C132.836 156.038 133.457 156.36 133.457 156.36L133.722 157.044C133.722 157.044 134.009 160.235 119.623 156.199C118.174 156.199 113.47 159.171 109.273 158.688C106.553 158.338 103.88 157.686 101.303 156.745C101.303 156.745 57.4482 159.131 53.0897 158.97C48.7312 158.809 45.4423 153.795 44.3613 150.776C40.6083 140.279 38.0469 129.393 36.7252 118.323Z" fill="#ECCEC3"/>
<path d="M56.0394 119.077C55.5104 116.524 55.0792 112.959 54.6134 111.568C52.7964 106.186 35.2647 114.155 36.4722 120.934C36.4722 120.934 37.0759 123.562 37.8004 125.914C43.3262 126.282 51.4279 123.24 56.0394 119.077Z" fill="#D8AB95"/>
<path d="M125.45 149.965L125.003 150.854L135.305 156.028L135.752 155.139L125.45 149.965Z" fill="#D8AB95"/>
<path d="M121.826 152.349L121.485 153.283L133.092 157.522L133.433 156.587L121.826 152.349Z" fill="#D8AB95"/>
<path d="M93.1559 130.801C97.0937 130.801 100.286 126.249 100.286 120.635C100.286 115.02 97.0937 110.469 93.1559 110.469C89.2181 110.469 86.0259 115.02 86.0259 120.635C86.0259 126.249 89.2181 130.801 93.1559 130.801Z" fill="#68E8CA"/>
<path d="M43.7805 91.4943C54.073 88.4065 58.42 97.5088 59.1502 115.759C59.1502 115.759 39.7266 127.259 36.7884 123.091C36.7884 123.091 32.4645 94.8753 43.7805 91.4943Z" fill="#68E8CA"/>
<path d="M136.413 153.646L121.492 145.429L108.594 148.459L108.365 147.488L121.635 144.371L136.896 152.772L136.413 153.646Z" fill="#D8AB95"/>
<path d="M52.647 148.845C52.5879 148.844 52.5293 148.833 52.4745 148.81C52.4216 148.788 52.3738 148.755 52.3339 148.713C52.294 148.672 52.2627 148.623 52.2423 148.569C52.2219 148.516 52.2126 148.458 52.215 148.401C52.2173 148.343 52.2314 148.287 52.2561 148.235C54.6308 142.79 60.7257 142.727 60.789 142.727C60.9003 142.727 61.0072 142.771 61.0859 142.85C61.1646 142.928 61.2087 143.035 61.2087 143.146C61.2087 143.258 61.1647 143.366 61.0862 143.445C61.0076 143.525 60.9008 143.57 60.789 143.572C60.559 143.572 55.1828 143.641 53.0323 148.574C53.0017 148.652 52.9489 148.72 52.8804 148.768C52.8118 148.816 52.7307 148.842 52.647 148.845Z" fill="#DDB09C"/>
<path d="M82.2479 85.583C82.2479 88.9295 79.8272 92.7015 72.9157 92.7015C66.0042 92.7015 60.2024 88.4752 60.5129 85.1402C60.9039 81.0232 64.2849 79.5225 71.1907 79.5225C78.0964 79.5225 82.2479 82.225 82.2479 85.583Z" fill="#24BC97"/>
<path d="M103.184 37.8463C104.788 41.8425 104.092 47.6213 103.247 51.7325C99.7971 68.5455 101.902 75.0775 101.902 75.0775C101.902 75.0775 84.4963 83.6278 66.8265 74.2668C63.8653 72.697 50.3298 66.8493 50.3298 66.8493C53.3412 62.0195 54.9351 56.4409 54.9298 50.7493C54.9298 47.1325 55.2231 28.9683 66.6081 23.8163C73.1171 20.8723 75.5148 17.1865 85.1173 19.5498C93.1731 21.039 103.184 37.8463 103.184 37.8463Z" fill="#383434"/>
<path d="M64.377 45.7122C65.8778 36.6617 68.9484 25.0122 77.8264 21.2919C94.2599 19.8199 102.264 38.4729 99.452 53.0377C97.727 62.2032 95.6916 78.2169 83.1106 76.7047C82.6736 79.1887 82.2653 82.7767 81.8915 84.6282C80.845 89.8032 81.8916 91.1659 75.6413 92.3159C69.8913 93.3624 63.4628 91.2004 61.9621 86.4739C62.2726 80.9999 65.6191 65.5209 64.2621 59.3569C60.1796 61.0244 55.867 43.7802 64.377 45.7122Z" fill="#ECCEC3"/>
<path d="M61.7551 54.3372C61.6476 54.3378 61.5428 54.3032 61.4567 54.2389C61.3705 54.1746 61.3078 54.084 61.2778 53.9807C60.4383 51.215 61.0075 48.0812 62.4852 47.2705C62.974 47.006 63.9804 46.7702 65.2109 48.2192C65.2956 48.3201 65.337 48.4504 65.3263 48.5818C65.3155 48.7131 65.2534 48.835 65.1533 48.9207C65.0524 49.0055 64.9221 49.047 64.7907 49.0362C64.6594 49.0255 64.5376 48.9633 64.4518 48.8632C64.0436 48.386 63.457 47.88 62.9625 48.1445C62.031 48.6562 61.5135 51.3127 62.2323 53.6932C62.2517 53.7559 62.2585 53.8218 62.2522 53.8871C62.2459 53.9524 62.2267 54.0158 62.1956 54.0736C62.1646 54.1314 62.1223 54.1824 62.0714 54.2237C62.0204 54.265 61.9618 54.2958 61.8989 54.3142C61.8527 54.3302 61.804 54.338 61.7551 54.3372Z" fill="#D8AB95"/>
<path d="M79.6778 65.2505H79.6087C79.5424 65.2422 79.4785 65.2204 79.4208 65.1867C79.3631 65.1529 79.3129 65.1078 79.2731 65.054C79.2333 65.0003 79.2048 64.939 79.1894 64.874C79.174 64.8089 79.1718 64.7414 79.1832 64.6755C79.2871 64.0324 79.6242 63.45 80.1301 63.0395C80.636 62.6291 81.2753 62.4193 81.926 62.4503C81.991 62.4546 82.0545 62.4718 82.1129 62.5008C82.1712 62.5298 82.2233 62.57 82.266 62.6192C82.3088 62.6683 82.3413 62.7254 82.3619 62.7872C82.3825 62.849 82.3907 62.9143 82.386 62.9793C82.3757 63.1105 82.3148 63.2324 82.216 63.3194C82.1173 63.4063 81.9885 63.4514 81.8571 63.445C81.4591 63.4307 81.0694 63.5607 80.7597 63.8111C80.4501 64.0616 80.2413 64.4156 80.1722 64.8078C80.1582 64.9293 80.1002 65.0414 80.0091 65.123C79.918 65.2045 79.8001 65.2499 79.6778 65.2505Z" fill="#EA977B"/>
<path d="M82.6545 51.9677C82.8199 51.1685 82.4522 50.4168 81.8334 50.2887C81.2145 50.1607 80.5788 50.7048 80.4134 51.504C80.2481 52.3032 80.6157 53.055 81.2345 53.183C81.8534 53.3111 82.4891 52.7669 82.6545 51.9677Z" fill="#383434"/>
<path d="M96.9545 53.9495C97.0417 53.1508 96.6134 52.4489 95.9978 52.3817C95.3822 52.3145 94.8124 52.9075 94.7253 53.7062C94.6381 54.5049 95.0664 55.2068 95.682 55.274C96.2976 55.3412 96.8673 54.7482 96.9545 53.9495Z" fill="#383434"/>
<path opacity="0.6" d="M81.6731 64.4922C86.4053 65.0672 87.6876 64.7625 88.7168 65.1592C89.7461 65.556 90.1485 66.0332 90.6718 66.1252C91.195 66.2172 92.1668 65.188 92.8396 65.602C93.5123 66.016 94.2195 66.5565 92.5348 67.6087C92.5348 67.6087 92.0863 71.122 88.7915 70.524C84.0075 69.6557 81.6731 64.4922 81.6731 64.4922Z" fill="#C90063"/>
<path d="M83.1106 76.7052C79.7756 75.8082 74.0256 74.733 69.0461 68.3447C69.0461 68.3447 70.0638 80.8912 75.8656 82.6565C81.6673 84.4217 82.4552 80.1092 82.4552 80.1092L83.1106 76.7052Z" fill="#D8AB95"/>
<path d="M90.7581 62.2718C89.6827 62.2813 88.6153 62.0861 87.6128 61.6968C87.4942 61.6385 87.4031 61.536 87.359 61.4113C87.315 61.2867 87.3214 61.1498 87.377 61.0298C87.4352 60.9111 87.5381 60.8203 87.6631 60.7772C87.7881 60.7341 87.9251 60.7422 88.0441 60.7998C88.8031 61.1678 91.6263 61.5703 92.5808 60.8803C92.6804 60.817 92.7582 60.7245 92.8034 60.6155C92.8487 60.5064 92.8593 60.3861 92.8338 60.2708C92.8215 60.2048 92.823 60.137 92.8381 60.0716C92.8532 60.0063 92.8816 59.9447 92.9215 59.8907C92.9614 59.8368 93.0119 59.7916 93.07 59.7581C93.1281 59.7246 93.1926 59.7034 93.2592 59.6958C93.325 59.6852 93.3923 59.6879 93.457 59.7036C93.5218 59.7194 93.5827 59.7479 93.6363 59.7876C93.6899 59.8272 93.735 59.8771 93.769 59.9345C93.803 59.9918 93.8251 60.0553 93.8342 60.1213C93.8836 60.4154 93.8476 60.7174 93.7304 60.9916C93.6132 61.2657 93.4197 61.5005 93.1731 61.6681C92.4469 62.1072 91.6054 62.3176 90.7581 62.2718Z" fill="#D8AB95"/>
<path d="M93.173 50.7441C93.0784 51.2902 93.015 51.8411 92.9832 52.3944C92.9545 52.9291 92.9258 53.4639 92.92 53.9986C92.8855 55.0796 92.8913 56.1376 92.7936 57.3164C92.4647 56.8277 92.2305 56.2816 92.1034 55.7064C91.9732 55.1409 91.9134 54.5615 91.9253 53.9814C91.9426 53.3951 92.0433 52.8143 92.2243 52.2564C92.3869 51.6709 92.7166 51.1454 93.173 50.7441Z" fill="#E87A5A"/>
<path d="M75.2905 45.6038C75.6339 45.4695 75.9878 45.3638 76.3485 45.2875C80.8163 44.356 81.6788 46.518 83.9558 47.668L84.6285 48.0015C84.8569 48.1207 85.1226 48.1471 85.37 48.0754C85.6174 48.0036 85.8276 47.8391 85.9568 47.6163C86.0136 47.5044 86.0472 47.382 86.0553 47.2568C86.0634 47.1315 86.046 47.0058 86.0041 46.8875C85.9621 46.7692 85.8966 46.6606 85.8113 46.5684C85.7261 46.4762 85.6229 46.4024 85.5083 46.3513L84.8586 46.0235C82.5241 44.8735 80.1091 43.6258 75.1239 44.7585C74.5949 44.8735 73.9738 45.2415 74.1003 45.7418C74.1981 46.0983 74.888 45.6613 75.2905 45.6038Z" fill="#383434"/>
<path d="M89.2401 21.9364C72.3294 14.1796 66.7002 28.2614 58.7192 36.9554C58.4662 37.1451 60.9157 38.8874 63.5722 41.3024L61.2376 41.1989L64.3427 45.6263C65.3087 45.8391 66.2287 46.9948 66.9302 48.0758C67.0151 48.1896 67.1343 48.2731 67.2704 48.3138C67.4064 48.3546 67.5518 48.3505 67.6853 48.3021C67.8188 48.2537 67.9332 48.1637 68.0116 48.0453C68.0899 47.9269 68.1281 47.7864 68.1204 47.6446C68.216 46.5109 68.4084 45.3875 68.6954 44.2866H68.8047C70.2997 44.6029 71.5992 43.7116 71.7659 42.7456C71.8004 42.5329 72.1282 41.3368 72.5077 39.9856C71.6279 44.7121 74.9283 42.2166 80.1781 43.2171C83.3061 44.4246 84.2607 35.3799 85.0082 34.3161C85.0082 34.3161 84.0594 43.2171 84.5136 43.1941C87.0436 43.0561 87.5957 44.6489 92.5982 44.7581C93.6447 44.7581 96.1862 45.6091 96.537 44.4879C96.9567 43.1481 97.2959 41.9866 97.5087 41.2276C97.4799 41.8774 97.6582 42.9123 98.5092 44.4476C98.8657 45.0916 99.9006 45.0916 100.182 45.3676C100.464 45.6436 103.144 45.2526 104.006 44.3499C105.616 24.4549 93.7481 21.6949 89.2401 21.9364Z" fill="#383434"/>
<path d="M93.1559 70.1843C93.3718 70.1843 93.5469 70.0093 93.5469 69.7933C93.5469 69.5774 93.3718 69.4023 93.1559 69.4023C92.9399 69.4023 92.7649 69.5774 92.7649 69.7933C92.7649 70.0093 92.9399 70.1843 93.1559 70.1843Z" fill="#454545"/>
<path d="M99.5614 41.0264C100.077 42.1245 100.364 43.3158 100.407 44.5281C100.501 45.7478 100.287 46.9716 99.7856 48.0874C99.6706 46.8684 99.6247 45.7356 99.5614 44.5684C99.4838 43.389 99.4838 42.2058 99.5614 41.0264Z" fill="#ECCEC3"/>
<path d="M94.3978 48.7888C94.5394 48.8232 94.6873 48.8232 94.829 48.7888C96.1975 48.4208 99.3371 47.9264 100.067 48.8349C100.144 48.9305 100.239 49.0101 100.346 49.0691C100.453 49.1281 100.571 49.1653 100.693 49.1787C100.815 49.192 100.938 49.1813 101.056 49.1469C101.173 49.1126 101.283 49.0554 101.378 48.9786C101.781 48.6566 101.781 48.8234 101.453 48.4036C100.027 46.6326 96.0136 46.5291 94.3461 46.9719C94.2267 47.0032 94.1147 47.0579 94.0166 47.1329C93.9186 47.2078 93.8364 47.3015 93.7749 47.4085C93.7134 47.5155 93.6737 47.6337 93.6582 47.7562C93.6428 47.8786 93.6518 48.0029 93.6848 48.1219C93.7314 48.2875 93.8226 48.4373 93.9483 48.5548C94.0739 48.6724 94.2294 48.7533 94.3978 48.7888Z" fill="#383434"/>
<path d="M86.7101 37.4785C86.8946 38.1408 86.9338 38.8351 86.8251 39.514C86.7193 40.1916 86.526 40.8527 86.2501 41.4805C85.9854 42.1004 85.662 42.6934 85.2841 43.2515C84.9066 43.8037 84.4855 44.3248 84.0249 44.8098C84.1948 44.1652 84.4238 43.5377 84.7091 42.9353C84.9621 42.3603 85.2267 41.745 85.4682 41.1528C85.9979 39.9702 86.4137 38.7399 86.7101 37.4785Z" fill="#ECCEC3"/>
<path d="M67.2289 40.7275C66.9777 41.3933 66.5648 41.9861 66.0273 42.4525C65.4825 42.9124 64.867 43.2813 64.2046 43.545C62.9108 44.0913 61.5711 44.3385 60.4671 44.7755C59.948 44.966 59.4726 45.2594 59.0697 45.638C58.6867 46.0423 58.3997 46.5278 58.2303 47.0583C57.8992 48.308 57.7064 49.5902 57.6553 50.882C57.1007 49.5893 56.9022 48.1718 57.0803 46.7765C57.1906 46.0029 57.5086 45.2736 58.0003 44.6663C58.5203 44.0802 59.1755 43.6302 59.9092 43.3553C61.1951 42.944 62.5097 42.6288 63.8423 42.4123C65.1044 42.1723 66.2761 41.5894 67.2289 40.7275Z" fill="#B8B2B2"/>
<path d="M63.2614 58.3393C63.7378 58.3393 64.1239 57.9531 64.1239 57.4768C64.1239 57.0004 63.7378 56.6143 63.2614 56.6143C62.7851 56.6143 62.3989 57.0004 62.3989 57.4768C62.3989 57.9531 62.7851 58.3393 63.2614 58.3393Z" fill="#A19C9C"/>
<path d="M61.7953 56.4705C62.1097 56.4705 62.3646 56.2157 62.3646 55.9013C62.3646 55.5869 62.1097 55.332 61.7953 55.332C61.4809 55.332 61.2261 55.5869 61.2261 55.9013C61.2261 56.2157 61.4809 56.4705 61.7953 56.4705Z" fill="#A19C9C"/>
<g style="mix-blend-mode:multiply">
<path d="M90.8269 68.1834C88.2279 68.1834 85.4736 67.3094 82.6216 65.5844C82.1731 65.3084 80.7472 64.2964 80.4137 63.6582C80.3689 63.5672 80.3612 63.4623 80.3924 63.3657C80.4235 63.2691 80.491 63.1885 80.5805 63.1407C80.6712 63.0944 80.7766 63.086 80.8736 63.1172C80.9706 63.1485 81.0512 63.2168 81.0979 63.3074C81.6452 63.9514 82.2963 64.4994 83.0242 64.9289C86.204 66.8552 89.2399 67.6774 92.0344 67.3497C92.1349 67.3383 92.2359 67.3669 92.3155 67.4293C92.3951 67.4917 92.447 67.5829 92.4599 67.6832C92.4713 67.7837 92.4427 67.8846 92.3803 67.9642C92.3179 68.0438 92.2267 68.0957 92.1264 68.1087C91.6951 68.1595 91.2611 68.1845 90.8269 68.1834Z" fill="#D96E4A"/>
</g>
<path d="M96.2438 99.3604C96.1387 100.713 96.1252 102.071 96.2035 103.426C96.284 104.76 96.468 106.071 96.6808 107.393L97.3592 111.418C97.6023 112.786 97.7407 114.17 97.7732 115.558C97.1593 114.312 96.6329 113.025 96.1977 111.706C95.7419 110.395 95.3975 109.049 95.1684 107.681C94.9326 106.283 94.8804 104.86 95.0132 103.449C95.1217 102.013 95.5417 100.618 96.2438 99.3604Z" fill="#24BC97"/>
<path d="M41.1584 94.7314C41.7792 93.5924 42.5531 92.5439 43.4584 91.6149C44.4011 90.6162 45.6203 89.9214 46.9601 89.6197C48.3855 89.3641 49.8543 89.6802 51.0484 90.4994C52.1691 91.2688 53.133 92.2445 53.8889 93.3744C55.317 95.5772 56.3177 98.0292 56.8387 100.602C57.4317 103.12 57.4982 105.733 57.0341 108.278C56.8909 105.772 56.4351 103.294 55.6772 100.901C55.3147 99.7258 54.8807 98.5736 54.3777 97.4512C53.9044 96.3337 53.3269 95.2633 52.6527 94.2542C52.0181 93.2662 51.2118 92.3996 50.2721 91.6954C49.3866 91.0163 48.2787 90.6942 47.1672 90.7927C45.9976 90.9596 44.8938 91.436 43.9701 92.1727C42.9639 92.9465 42.0235 93.8024 41.1584 94.7314Z" fill="#24BC97"/>
<path d="M80.5115 170.057C87.2089 170.057 92.6383 168.275 92.6383 166.078C92.6383 163.88 87.2089 162.099 80.5115 162.099C73.8141 162.099 68.3848 163.88 68.3848 166.078C68.3848 168.275 73.8141 170.057 80.5115 170.057Z" fill="#6285F9"/>
<path d="M78.7291 184.058C76.108 183.942 73.4821 184.111 70.8977 184.564C70.766 184.192 70.536 183.863 70.2323 183.612C69.9285 183.361 69.5623 183.197 69.1727 183.138L62.0082 182.022C61.7052 181.975 61.3956 181.992 61.0999 182.074C60.8043 182.155 60.5293 182.298 60.2933 182.494C60.0573 182.69 59.8657 182.934 59.7311 183.209C59.5965 183.485 59.522 183.786 59.5126 184.092V184.27C59.4953 184.798 59.6718 185.313 60.0087 185.719C60.3457 186.125 60.8197 186.393 61.3411 186.473L65.2799 187.088C65.0934 187.365 64.9951 187.691 64.9982 188.025C64.9982 190.48 71.1448 192.694 78.7291 192.97C86.3133 193.246 92.4659 191.487 92.4659 189.031C92.4659 186.576 86.3133 184.334 78.7291 184.058Z" fill="#B8B2B2"/>
<path d="M68.3848 165.957L70.0639 188.296C70.0639 190.239 74.7386 191.815 80.5058 191.815C86.2731 191.815 90.9421 190.239 90.9421 188.296L92.6211 165.957H68.3848Z" fill="#6285F9"/>
<path d="M69.9202 186.409L70.0639 188.295C70.0639 190.239 74.7386 191.814 80.5059 191.814C86.2731 191.814 90.9422 190.239 90.9422 188.295L91.9771 174.541C87.6473 183.81 81.0982 191.354 69.9202 186.409Z" fill="#4258FF"/>
<path d="M80.5114 168.982C86.2561 168.982 90.9131 167.628 90.9131 165.957C90.9131 164.287 86.2561 162.933 80.5114 162.933C74.7666 162.933 70.1096 164.287 70.1096 165.957C70.1096 167.628 74.7666 168.982 80.5114 168.982Z" fill="#4258FF"/>
<path d="M80.523 162.863C87.4575 162.863 91.885 164.767 91.885 166.078C91.885 167.389 87.4575 169.292 80.523 169.292C73.5885 169.292 69.161 167.389 69.161 166.078C69.161 164.767 73.5885 162.863 80.523 162.863ZM80.523 162.099C73.8243 162.099 68.3962 163.881 68.3962 166.078C68.3962 168.274 73.8243 170.057 80.523 170.057C87.2218 170.057 92.6498 168.274 92.6498 166.078C92.6498 163.881 87.2218 162.099 80.523 162.099Z" fill="#6285F9"/>
<path d="M68.5399 171.045H68.8389L73.4389 171.62C74.4222 171.776 75.4285 173.259 75.3192 175.042L74.9972 180.217C74.9052 181.723 74.0657 182.66 73.347 182.66H73.2032H73.1514L68.7067 182.12C66.5447 181.855 64.814 178.929 65.0037 175.852C65.1705 173.184 66.7287 171.091 68.5399 171.091V171.045ZM68.5399 168.027C65.0899 168.027 62.215 171.275 61.9447 175.663C61.6457 180.424 64.5208 184.696 68.3388 185.162L72.7778 185.702C72.9682 185.73 73.1604 185.743 73.3528 185.742C75.8195 185.742 77.8722 183.483 78.062 180.424L78.384 175.249C78.591 171.954 76.5612 168.981 73.8529 168.602L69.2128 168.027C68.9915 167.999 68.7687 167.986 68.5457 167.986L68.5399 168.027Z" fill="#6285F9"/>
<path d="M90.5281 166.75C88.8951 165.652 85.1232 164.876 80.7187 164.876C76.0899 164.876 72.1568 165.733 70.6848 166.929C72.0936 168.119 75.9519 168.97 80.5116 168.97C85.2956 168.981 89.3091 168.044 90.5281 166.75Z" fill="#5F0C0C"/>
<path d="M88.1359 166.422C87.3291 167.132 86.3493 167.616 85.2954 167.825C84.2755 168.076 83.2293 168.205 82.1789 168.21C81.1292 168.224 80.0815 168.115 79.0566 167.888C78.0181 167.689 77.0363 167.263 76.1816 166.64C77.2396 166.709 78.2229 166.692 79.2234 166.698H82.1904L85.1575 166.663C86.1549 166.658 87.1505 166.577 88.1359 166.422Z" fill="#231F20"/>
<path d="M82.7827 166.859C83.8982 162.518 84.8298 158.108 84.8413 153.692C84.8558 151.491 84.6088 149.296 84.1053 147.154C83.6395 145.009 82.9553 142.882 82.409 140.668C82.135 139.553 81.9219 138.425 81.7707 137.287C81.6064 136.127 81.566 134.953 81.65 133.785C81.7073 132.554 82.0311 131.349 82.5988 130.255C82.9318 129.665 83.4035 129.166 83.973 128.8C84.5734 128.422 85.2776 128.243 85.9855 128.288C86.6344 128.36 87.2599 128.573 87.8188 128.91C88.3776 129.248 88.8566 129.702 89.2227 130.243C89.9397 131.231 90.366 132.401 90.4533 133.618C90.5418 134.79 90.377 135.966 89.9702 137.068C89.5904 138.141 89.0453 139.148 88.3546 140.053C88.8665 139.066 89.2529 138.019 89.5046 136.936C89.7366 135.884 89.7658 134.797 89.5908 133.733C89.4166 132.712 88.9808 131.753 88.3258 130.95C88.0363 130.577 87.6729 130.266 87.2585 130.039C86.844 129.811 86.3872 129.671 85.9165 129.628C85.4822 129.633 85.0589 129.764 84.6984 130.006C84.3378 130.249 84.0558 130.591 83.8868 130.991C83.4389 131.901 83.1918 132.897 83.1623 133.912C83.0922 136.08 83.3225 138.247 83.8465 140.352C84.318 142.502 84.9563 144.664 85.3933 146.912C85.8316 149.159 85.9958 151.451 85.8821 153.738C85.7467 156.002 85.3884 158.248 84.8125 160.442C84.2642 162.62 83.5864 164.762 82.7827 166.859Z" fill="white"/>
<path d="M68.2468 101.378C71.2666 102.104 74.0281 103.647 76.2279 105.84C78.3862 108.147 79.8214 111.035 80.3564 114.149C80.9018 117.233 80.8862 120.391 80.3103 123.469C79.7551 126.53 78.8223 129.511 77.5332 132.342C76.2739 135.125 74.8306 137.821 74.4453 140.668C74.236 142.058 74.3905 143.478 74.8939 144.79C75.4689 146.101 76.2566 147.43 77.0041 148.746C77.7928 150.07 78.5144 151.433 79.1661 152.829C79.8361 154.253 80.2656 155.778 80.4369 157.343C80.4714 157.737 80.4828 158.132 80.4713 158.527C80.4713 158.924 80.4254 159.292 80.4312 159.677C80.4312 160.436 80.4311 161.201 80.3966 161.977C80.3676 162.754 80.2538 163.525 80.0573 164.277C79.8417 165.016 79.4929 165.71 79.0281 166.324C79.7679 165.001 80.1001 163.489 79.9827 161.977C79.9827 161.23 79.8964 160.471 79.8447 159.706C79.8102 159.321 79.8044 158.924 79.7986 158.556C79.7802 158.19 79.7419 157.825 79.6837 157.463C79.2352 154.531 77.5619 151.966 75.9692 149.413C75.128 148.116 74.3602 146.772 73.6692 145.388C73.0298 143.86 72.8018 142.191 73.0078 140.547C73.4276 137.304 74.9341 134.515 76.1473 131.767C77.4047 129.055 78.3314 126.201 78.9073 123.268C79.5089 120.353 79.61 117.357 79.2064 114.407C78.8082 111.46 77.5911 108.683 75.6932 106.392C73.7784 104.029 71.0931 102.447 68.2468 101.378Z" fill="white"/>
<path d="M63.2731 175.553C63.2228 175.554 63.1729 175.544 63.1262 175.526C63.0795 175.507 63.0369 175.479 63.0011 175.444C62.9652 175.408 62.9367 175.366 62.9173 175.32C62.8979 175.273 62.8879 175.224 62.8879 175.173C62.8179 173.78 63.1922 172.4 63.9569 171.234C64.7217 170.067 65.8373 169.173 67.1429 168.681C67.1901 168.664 67.2402 168.656 67.2904 168.659C67.3406 168.661 67.3898 168.673 67.4353 168.694C67.4808 168.716 67.5216 168.746 67.5553 168.783C67.589 168.821 67.615 168.864 67.6317 168.911C67.6492 168.958 67.6572 169.008 67.6554 169.058C67.6536 169.108 67.6419 169.157 67.621 169.202C67.6002 169.248 67.5706 169.289 67.534 169.323C67.4973 169.357 67.4542 169.383 67.4074 169.4C66.5161 169.728 63.6123 171.125 63.6526 175.15C63.6534 175.201 63.6441 175.251 63.6254 175.297C63.6066 175.344 63.5788 175.386 63.5435 175.422C63.5082 175.458 63.4661 175.487 63.4197 175.506C63.3733 175.525 63.3235 175.536 63.2731 175.536V175.553Z" fill="#C4D1FD"/>
<path d="M187.404 176.105C193.108 174.702 195.074 174.38 200.98 172.937C203.855 172.235 201.888 172.73 204.855 172.023C204.93 172.005 205.003 171.98 205.074 171.948C206.856 171.218 205.7 169.441 203.797 169.142L176.387 163.967C176.306 163.967 121.497 175.979 121.497 175.979C121.408 176.01 121.332 176.069 121.279 176.148C121.226 176.226 121.199 176.319 121.203 176.414C121.207 176.508 121.241 176.599 121.3 176.673C121.359 176.747 121.441 176.8 121.532 176.824L155.457 183.488C163.783 181.786 178.572 178.279 187.404 176.105Z" fill="#B8B2B2"/>
<path d="M114.701 163.818L118.875 94.5763C118.928 93.696 119.295 92.8638 119.909 92.2308C120.523 91.5978 121.344 91.2059 122.222 91.1263L208.472 82.3921C209.002 82.344 209.536 82.4108 210.037 82.588C210.539 82.7651 210.996 83.0484 211.378 83.4185C211.76 83.7886 212.058 84.2367 212.251 84.7324C212.444 85.2281 212.528 85.7596 212.497 86.2906L208.777 147.959C208.727 148.785 208.401 149.57 207.851 150.188C207.302 150.807 206.561 151.222 205.746 151.369L119.048 167.67C118.497 167.772 117.931 167.747 117.391 167.597C116.852 167.446 116.354 167.175 115.935 166.804C115.516 166.433 115.187 165.971 114.973 165.453C114.759 164.936 114.666 164.377 114.701 163.818Z" fill="#383434"/>
<path d="M176.145 163.449L123.872 174.167C123.655 174.211 123.458 174.326 123.312 174.493C123.167 174.661 123.081 174.872 123.067 175.093C123.052 175.337 123.126 175.578 123.277 175.771C123.427 175.964 123.643 176.095 123.884 176.14L142.491 179.728C142.627 179.759 142.768 179.759 142.905 179.728L192.24 168.435C192.452 168.386 192.643 168.271 192.784 168.105C192.925 167.939 193.008 167.732 193.022 167.515C193.036 167.271 192.961 167.03 192.81 166.838C192.66 166.645 192.445 166.514 192.205 166.468L176.536 163.466C176.408 163.435 176.276 163.429 176.145 163.449Z" fill="#383434"/>
<path d="M142.698 179.043C142.597 179.044 142.498 179.01 142.419 178.947C142.34 178.884 142.284 178.797 142.261 178.698C142.248 178.641 142.247 178.582 142.257 178.525C142.267 178.467 142.289 178.412 142.32 178.363C142.352 178.314 142.393 178.272 142.441 178.238C142.489 178.205 142.543 178.182 142.6 178.169L191.998 166.94C192.055 166.926 192.114 166.924 192.171 166.934C192.229 166.943 192.284 166.964 192.333 166.995C192.382 167.026 192.425 167.067 192.458 167.115C192.492 167.162 192.515 167.216 192.527 167.273C192.541 167.33 192.543 167.389 192.533 167.446C192.524 167.504 192.503 167.559 192.472 167.608C192.441 167.657 192.4 167.7 192.353 167.733C192.305 167.767 192.251 167.79 192.194 167.802L142.796 179.032L142.698 179.043Z" fill="#706E6E"/>
<path d="M151.11 153.249C152.973 153.577 154.842 153.882 156.705 154.221L157.176 154.313C156.909 154.405 156.688 154.597 156.56 154.85C156.432 155.102 156.408 155.394 156.492 155.664L158.418 161.989C158.654 162.759 159.079 163.457 159.654 164.02C160.23 164.583 160.938 164.992 161.713 165.209C162.03 165.299 162.366 165.301 162.684 165.217C163.002 165.132 163.292 164.963 163.523 164.728C163.753 164.493 163.916 164.2 163.994 163.879C164.073 163.559 164.063 163.224 163.967 162.909L162.305 157.424C162.222 157.185 162.059 156.983 161.845 156.849L158.309 154.583C160.281 154.974 162.242 155.411 164.191 155.865L166.284 156.366L169.999 168.59L157.119 172.489L151.11 153.249Z" fill="#383434"/>
<path d="M178.124 62.6055C184.224 62.6055 190.074 60.1822 194.387 55.8689C198.7 51.5556 201.124 45.7054 201.124 39.6055C201.124 33.5055 198.7 27.6553 194.387 23.342C190.074 19.0287 184.224 16.6055 178.124 16.6055C172.024 16.6055 166.173 19.0287 161.86 23.342C157.547 27.6553 155.124 33.5055 155.124 39.6055C155.124 45.7054 157.547 51.5556 161.86 55.8689C166.173 60.1822 172.024 62.6055 178.124 62.6055Z" fill="#24BC97"/>
<path d="M165.537 40.6293L170.896 46.1149C171.168 46.3909 171.493 46.6098 171.85 46.7589C172.215 46.9104 172.606 46.9867 173 46.9831C173.395 46.9868 173.786 46.9105 174.15 46.7589C174.51 46.6099 174.836 46.391 175.111 46.1149L189.877 31.3604" stroke="white" stroke-width="2.3" stroke-miterlimit="10"/>
</g>
</g>
<defs>
<clipPath id="clip0_1237_947">
<rect width="230" height="230" fill="white"/>
</clipPath>
<clipPath id="clip1_1237_947">
<rect width="230" height="230" fill="white"/>
</clipPath>
</defs>
</svg>
