<svg width="33" height="33" viewBox="0 0 33 33" fill="none" xmlns="http://www.w3.org/2000/svg">
<rect x="1.60938" y="1.5" width="30" height="30" rx="15" fill="#FFD663"/>
<path fill-rule="evenodd" clip-rule="evenodd" d="M1.68344 15C1.63445 15.4934 1.60938 15.9938 1.60938 16.5C1.60938 24.7843 8.3251 31.5 16.6094 31.5C24.8936 31.5 31.6094 24.7843 31.6094 16.5C31.6094 15.9937 31.5843 15.4934 31.5353 15C30.7827 22.58 24.3874 28.5 16.6094 28.5C8.83135 28.5 2.43602 22.58 1.68344 15Z" fill="#FFD04C"/>
<circle cx="6.10938" cy="13" r="2.5" fill="#FF759B" fill-opacity="0.2"/>
<circle cx="27.1094" cy="13" r="2.5" fill="#FF759B" fill-opacity="0.2"/>
<mask id="path-5-inside-1_566_22454" fill="white">
<path fill-rule="evenodd" clip-rule="evenodd" d="M11.6094 10.2778C10.8993 10.2778 10.3237 10.8747 10.3237 11.6111C10.3237 12.102 9.9399 12.5 9.46652 12.5C8.99313 12.5 8.60938 12.102 8.60938 11.6111C8.60938 9.89289 9.95252 8.5 11.6094 8.5C13.2662 8.5 14.6094 9.89289 14.6094 11.6111C14.6094 12.102 14.2256 12.5 13.7522 12.5C13.2788 12.5 12.8951 12.102 12.8951 11.6111C12.8951 10.8747 12.3195 10.2778 11.6094 10.2778Z"/>
</mask>
<path fill-rule="evenodd" clip-rule="evenodd" d="M11.6094 10.2778C10.8993 10.2778 10.3237 10.8747 10.3237 11.6111C10.3237 12.102 9.9399 12.5 9.46652 12.5C8.99313 12.5 8.60938 12.102 8.60938 11.6111C8.60938 9.89289 9.95252 8.5 11.6094 8.5C13.2662 8.5 14.6094 9.89289 14.6094 11.6111C14.6094 12.102 14.2256 12.5 13.7522 12.5C13.2788 12.5 12.8951 12.102 12.8951 11.6111C12.8951 10.8747 12.3195 10.2778 11.6094 10.2778Z" fill="#52565F"/>
<path d="M12.3237 11.6111C12.3237 11.9101 12.0718 12.2778 11.6094 12.2778V8.27778C9.72679 8.27778 8.32366 9.83934 8.32366 11.6111H12.3237ZM9.46652 14.5C11.1124 14.5 12.3237 13.1374 12.3237 11.6111H8.32366C8.32366 11.0666 8.7674 10.5 9.46652 10.5V14.5ZM6.60938 11.6111C6.60938 13.1374 7.82063 14.5 9.46652 14.5V10.5C10.1656 10.5 10.6094 11.0666 10.6094 11.6111H6.60938ZM11.6094 6.5C8.78002 6.5 6.60938 8.8575 6.60938 11.6111H10.6094C10.6094 10.9283 11.125 10.5 11.6094 10.5V6.5ZM16.6094 11.6111C16.6094 8.8575 14.4387 6.5 11.6094 6.5V10.5C12.0937 10.5 12.6094 10.9283 12.6094 11.6111H16.6094ZM13.7522 14.5C15.3981 14.5 16.6094 13.1374 16.6094 11.6111H12.6094C12.6094 11.0666 13.0531 10.5 13.7522 10.5V14.5ZM10.8951 11.6111C10.8951 13.1374 12.1063 14.5 13.7522 14.5V10.5C14.4513 10.5 14.8951 11.0666 14.8951 11.6111H10.8951ZM11.6094 12.2778C11.147 12.2778 10.8951 11.9101 10.8951 11.6111H14.8951C14.8951 9.83934 13.492 8.27778 11.6094 8.27778V12.2778Z" fill="#52565F" mask="url(#path-5-inside-1_566_22454)"/>
<mask id="path-7-inside-2_566_22454" fill="white">
<path fill-rule="evenodd" clip-rule="evenodd" d="M21.6094 10.2778C20.8993 10.2778 20.3237 10.8747 20.3237 11.6111C20.3237 12.102 19.9399 12.5 19.4665 12.5C18.9931 12.5 18.6094 12.102 18.6094 11.6111C18.6094 9.89289 19.9525 8.5 21.6094 8.5C23.2662 8.5 24.6094 9.89289 24.6094 11.6111C24.6094 12.102 24.2256 12.5 23.7522 12.5C23.2788 12.5 22.8951 12.102 22.8951 11.6111C22.8951 10.8747 22.3195 10.2778 21.6094 10.2778Z"/>
</mask>
<path fill-rule="evenodd" clip-rule="evenodd" d="M21.6094 10.2778C20.8993 10.2778 20.3237 10.8747 20.3237 11.6111C20.3237 12.102 19.9399 12.5 19.4665 12.5C18.9931 12.5 18.6094 12.102 18.6094 11.6111C18.6094 9.89289 19.9525 8.5 21.6094 8.5C23.2662 8.5 24.6094 9.89289 24.6094 11.6111C24.6094 12.102 24.2256 12.5 23.7522 12.5C23.2788 12.5 22.8951 12.102 22.8951 11.6111C22.8951 10.8747 22.3195 10.2778 21.6094 10.2778Z" fill="#52565F"/>
<path d="M22.3237 11.6111C22.3237 11.9101 22.0718 12.2778 21.6094 12.2778V8.27778C19.7268 8.27778 18.3237 9.83934 18.3237 11.6111H22.3237ZM19.4665 14.5C21.1124 14.5 22.3237 13.1374 22.3237 11.6111H18.3237C18.3237 11.0666 18.7674 10.5 19.4665 10.5V14.5ZM16.6094 11.6111C16.6094 13.1374 17.8206 14.5 19.4665 14.5V10.5C20.1656 10.5 20.6094 11.0666 20.6094 11.6111H16.6094ZM21.6094 6.5C18.78 6.5 16.6094 8.8575 16.6094 11.6111H20.6094C20.6094 10.9283 21.125 10.5 21.6094 10.5V6.5ZM26.6094 11.6111C26.6094 8.8575 24.4387 6.5 21.6094 6.5V10.5C22.0937 10.5 22.6094 10.9283 22.6094 11.6111H26.6094ZM23.7522 14.5C25.3981 14.5 26.6094 13.1374 26.6094 11.6111H22.6094C22.6094 11.0666 23.0531 10.5 23.7522 10.5V14.5ZM20.8951 11.6111C20.8951 13.1374 22.1063 14.5 23.7522 14.5V10.5C24.4513 10.5 24.8951 11.0666 24.8951 11.6111H20.8951ZM21.6094 12.2778C21.147 12.2778 20.8951 11.9101 20.8951 11.6111H24.8951C24.8951 9.83934 23.492 8.27778 21.6094 8.27778V12.2778Z" fill="#52565F" mask="url(#path-7-inside-2_566_22454)"/>
<path fill-rule="evenodd" clip-rule="evenodd" d="M7.16238 16.6058C7.65636 16.3588 8.25703 16.559 8.50402 17.053C9.27116 18.5873 12.085 20.5002 16.6096 20.5002C21.1342 20.5002 23.948 18.5873 24.7152 17.053C24.9622 16.559 25.5628 16.3588 26.0568 16.6058C26.5508 16.8528 26.751 17.4535 26.504 17.9474C25.2712 20.4131 21.5587 22.5002 16.6096 22.5002C11.6605 22.5002 7.94802 20.4131 6.71517 17.9474C6.46818 17.4535 6.6684 16.8528 7.16238 16.6058Z" fill="#52565F"/>
</svg>
