<svg width="124" height="124" viewBox="0 0 124 124" fill="none" xmlns="http://www.w3.org/2000/svg">
<g clip-path="url(#clip0_559_21115)">
<g clip-path="url(#clip1_559_21115)">
<path d="M116.496 64.3572C116.493 55.4975 114.248 46.7825 109.97 39.0235C105.692 31.2645 99.5206 24.7136 92.0292 19.9806C84.5378 15.2477 75.9704 12.4866 67.1245 11.9543C58.2786 11.4219 49.4419 13.1358 41.4367 16.9362C33.4315 20.7366 26.5182 26.5001 21.3404 33.6901C16.1625 40.8801 12.8883 49.263 11.8226 58.0584C10.7569 66.8537 11.9344 75.7757 15.2454 83.9938C18.5564 92.2118 23.8932 99.4588 30.7593 105.06C53.2089 103.324 75.8445 103.975 98.5112 103.944C104.168 99.0165 108.701 92.9325 111.803 86.1031C114.906 79.2736 116.506 71.858 116.496 64.3572Z" fill="#F9F1EC"/>
<path d="M103.381 90.5817C103.598 82.3977 100.249 72.6637 95.8149 61.4107C94.1094 58.2177 85.1172 63.2087 85.1172 63.2087C86.4815 69.0987 86.7606 89.1557 86.7606 89.1557L103.381 90.5817Z" fill="#C47A5B"/>
<path d="M69.9528 45.2617C76.7125 48.3927 78.387 48.2377 81.6738 49.6637C86.759 50.9037 86.511 55.6157 88.7125 57.1037C90.9141 58.5917 96.0614 66.1247 96.0614 66.1247L61.9838 78.5557L30.666 75.5487C30.666 75.5487 34.0459 66.0007 35.3792 62.2497C37.4257 56.8247 39.0071 55.1197 40.9296 53.9107C42.8521 52.7017 49.5187 48.9507 56.6505 45.5717L69.9528 45.2617Z" fill="#383434"/>
<path d="M51.162 21.7316L49.6116 15.2216C49.6116 15.2216 49.2396 14.6016 49.4876 14.2296C49.7357 13.8576 51.9062 8.61856 56.4644 10.8816C57.3326 11.3156 57.6116 14.9736 57.6116 14.9736C57.6116 14.9736 56.0303 14.9116 54.2938 16.6786C52.5574 18.4456 52.8985 18.9726 53.1775 21.3286C53.1775 21.3286 52.1853 25.4206 52.8364 28.4276L52.4954 29.5746C52.4954 29.6056 51.6892 25.3896 51.162 21.7316Z" fill="#383434"/>
<path d="M47.5666 100.534C47.7526 97.6204 45.6751 65.1324 45.396 62.4354C45.1169 59.7384 42.6983 53.6004 43.3805 52.7014C44.9309 50.7174 55.1945 46.3774 64.4658 46.5944C68.9619 46.6874 72.0937 45.7884 85.179 50.8724C88.1867 54.2204 84.2797 83.0814 84.1867 87.7624" fill="#383434"/>
<path d="M53.3027 47.8961C53.3027 49.1361 55.1942 52.2671 61.5508 52.4531C67.4423 52.6081 72.3105 49.1361 72.3105 47.8961C72.3105 46.6561 68.0624 45.6641 62.7911 45.6641C57.5198 45.6641 53.3027 46.6561 53.3027 47.8961Z" fill="#231F20"/>
<path d="M74.6048 24.5838C74.2327 23.5918 73.9537 23.1888 73.0234 23.6848C72.9924 23.7158 72.9614 23.6848 72.9614 23.6228C73.1475 22.1968 73.3025 20.8638 73.3955 19.7478C73.7676 18.0118 74.1707 16.0278 72.9304 14.1678C72.6513 13.5168 72.2792 13.1138 71.5661 12.5248C70.9316 12.0958 70.2435 11.7519 69.5195 11.5018C69.1374 11.3123 68.7439 11.1467 68.3412 11.0058C66.6048 10.3238 65.4265 9.14579 63.473 9.42479C63.287 9.45579 63.0389 9.48679 62.7598 9.54879C62.4808 9.48679 62.2637 9.45579 62.0467 9.42479C60.0932 9.14579 58.9149 10.3238 57.1785 11.0058C56.7443 11.1608 56.3723 11.3468 56.0002 11.5018C55.0699 11.8738 54.2947 12.2148 53.9536 12.5248C53.2405 13.1138 53.1164 14.6328 52.8374 15.2528C51.5971 17.1128 51.5661 18.1358 51.6591 20.8948C51.7521 22.0108 52.3723 22.1658 52.5583 23.5918C52.5583 23.6538 51.0079 23.0648 50.6668 24.5528C50.3257 26.0408 51.0699 31.1248 52.7754 31.5588C53.1164 31.6518 54.4498 36.1778 54.4498 40.8278C54.4808 41.9748 54.6978 46.0668 54.1397 47.6168C53.8296 48.4538 56.8064 52.8248 62.7909 52.5148C68.7443 52.8248 71.7211 48.4538 71.411 47.6168C70.8529 46.0978 71.0699 42.1298 71.1009 40.9828C71.1009 36.6428 72.4343 31.6518 72.7754 31.5588C74.4808 31.1558 75.1319 26.0098 74.6048 24.5838Z" fill="#C47A5B"/>
<path d="M66.5733 35.8973C66.5446 35.8982 66.516 35.8932 66.4893 35.8826C66.4626 35.872 66.4383 35.856 66.418 35.8357C66.3976 35.8154 66.3817 35.7911 66.3711 35.7644C66.3605 35.7377 66.3554 35.7091 66.3563 35.6803C66.3563 35.4323 66.2633 35.0913 65.4881 34.9673C65.439 34.9511 65.3977 34.917 65.3723 34.8719C65.347 34.8268 65.3394 34.7739 65.351 34.7235C65.3627 34.6731 65.3927 34.6288 65.4352 34.5994C65.4778 34.57 65.5298 34.5575 65.5811 34.5643C66.3873 34.7193 66.7904 35.0913 66.7904 35.7113C66.7849 35.7642 66.7593 35.813 66.719 35.8476C66.6786 35.8822 66.6265 35.9 66.5733 35.8973Z" fill="#AC5B47"/>
<path d="M57.8597 35.898C57.831 35.8989 57.8024 35.8938 57.7757 35.8832C57.7489 35.8726 57.7247 35.8567 57.7043 35.8363C57.684 35.816 57.6681 35.7918 57.6574 35.765C57.6468 35.7383 57.6418 35.7097 57.6427 35.681C57.6427 35.092 58.0458 34.689 58.852 34.534C58.8794 34.5249 58.9085 34.5216 58.9372 34.5244C58.966 34.5272 58.9939 34.5359 59.0191 34.5501C59.0443 34.5642 59.0663 34.5835 59.0836 34.6066C59.101 34.6298 59.1133 34.6563 59.1198 34.6844C59.1263 34.7126 59.1268 34.7418 59.1214 34.7702C59.116 34.7986 59.1047 34.8255 59.0882 34.8493C59.0718 34.8731 59.0505 34.8932 59.0259 34.9083C59.0012 34.9234 58.9737 34.9331 58.945 34.937C58.1698 35.092 58.0768 35.402 58.0768 35.65C58.0458 35.805 57.9528 35.898 57.8597 35.898Z" fill="#AC5B47"/>
<path d="M61.9546 36.4554C60.4663 36.4554 59.0399 36.1764 58.1097 35.5254C58.0686 35.4925 58.0422 35.4446 58.0364 35.3923C58.0306 35.34 58.0458 35.2875 58.0787 35.2464C58.1116 35.2053 58.1594 35.1789 58.2118 35.1731C58.2641 35.1673 58.3166 35.1825 58.3577 35.2154C60.2182 36.5794 64.4042 36.1454 66.3577 35.2464C66.4071 35.2217 66.4642 35.2177 66.5165 35.2351C66.5689 35.2525 66.6121 35.29 66.6368 35.3394C66.6615 35.3887 66.6655 35.4458 66.6481 35.4981C66.6306 35.5505 66.5931 35.5937 66.5438 35.6184C65.0818 36.1886 63.5239 36.4728 61.9546 36.4554Z" fill="#6A3124"/>
<path d="M69.5498 23.0651C69.5056 23.0672 69.4617 23.0567 69.4232 23.0347C69.3848 23.0128 69.3534 22.9803 69.3328 22.9411C68.7436 22.0421 67.1002 21.7631 64.6196 22.1971C64.5579 22.2094 64.4939 22.1967 64.4415 22.1619C64.3892 22.127 64.3529 22.0727 64.3405 22.0111C64.3282 21.9494 64.3409 21.8854 64.3758 21.8331C64.4107 21.7807 64.4649 21.7444 64.5266 21.7321C67.2243 21.2981 69.0537 21.6081 69.7359 22.6931C69.765 22.7487 69.7747 22.8125 69.7634 22.8742C69.7522 22.936 69.7207 22.9922 69.6739 23.0341C69.6429 23.0651 69.6119 23.0651 69.5498 23.0651Z" fill="#904227"/>
<path d="M54.7293 23.0038C54.6718 23.0027 54.6167 22.9807 54.5743 22.9418C54.5256 22.9002 54.4951 22.8413 54.4893 22.7776C54.4835 22.7138 54.5029 22.6504 54.5433 22.6008C55.2255 21.8258 56.5278 21.5158 58.8224 21.6398C58.8529 21.6418 58.8827 21.6498 58.9102 21.6634C58.9376 21.677 58.9621 21.6958 58.9823 21.7188C59.0024 21.7418 59.0178 21.7686 59.0277 21.7976C59.0375 21.8266 59.0415 21.8572 59.0394 21.8878C59.0374 21.9183 59.0294 21.9481 59.0158 21.9756C59.0022 22.003 58.9834 22.0275 58.9603 22.0476C58.9373 22.0678 58.9105 22.0832 58.8815 22.093C58.8525 22.1028 58.8219 22.1068 58.7914 22.1048C56.0937 21.9498 55.2875 22.4458 54.8844 22.8798C54.8766 22.915 54.857 22.9466 54.8288 22.9691C54.8006 22.9917 54.7655 23.0039 54.7293 23.0038Z" fill="#904227"/>
<path d="M66.8843 27.3439C67.3296 27.3439 67.6905 26.9136 67.6905 26.3829C67.6905 25.8521 67.3296 25.4219 66.8843 25.4219C66.4391 25.4219 66.0781 25.8521 66.0781 26.3829C66.0781 26.9136 66.4391 27.3439 66.8843 27.3439Z" fill="#454545"/>
<path d="M58.2199 27.2062C58.6623 27.1563 58.9727 26.6882 58.9132 26.1608C58.8536 25.6335 58.4467 25.2464 58.0042 25.2963C57.5618 25.3462 57.2514 25.8143 57.3109 26.3417C57.3705 26.8691 57.7774 27.2561 58.2199 27.2062Z" fill="#454545"/>
<path d="M73.6118 23.4662L75.0071 16.7082C75.0071 16.7082 75.3792 16.0882 75.1311 15.7162C74.8831 15.3442 72.9296 8.64824 68.3714 10.9112C67.5032 11.3452 68.0614 14.5382 68.0614 14.5382C68.0614 14.5382 69.6738 14.2282 71.4102 15.9952C73.1466 17.7622 72.4335 25.2022 71.8443 28.7672L72.3094 28.4262C72.3579 28.3905 72.3973 28.3438 72.4242 28.2899C72.4512 28.236 72.465 28.1765 72.4645 28.1162C72.4955 27.2172 72.5575 23.7452 73.6118 23.4662Z" fill="#383434"/>
<path d="M68.8377 11.0677C67.3183 11.0057 67.9074 11.7497 67.3183 14.3847C65.5819 14.3847 63.7834 16.5857 62.078 16.5857C60.2795 16.5857 56.2485 13.6097 54.5741 14.6947C52.0935 16.2757 53.0237 22.9407 52.7757 23.3747C52.7757 23.3747 50.8842 19.4377 50.7291 18.5387C50.5741 17.6397 49.5508 14.1677 51.0392 11.8117C52.5276 9.45574 53.6439 7.71974 56.3415 8.21574C57.7679 8.09174 61.9229 6.51074 64.2175 7.09974C66.5121 7.68874 68.8377 11.0677 68.8377 11.0677Z" fill="#383434"/>
<path d="M67.5975 40.6091C66.2332 43.8021 59.1634 43.8021 57.8301 40.6091C57.8301 40.6091 55.1324 38.0671 54.0781 35.6491C55.0704 39.3381 56.0316 46.2511 62.7603 46.2511C69.489 46.2511 71.6595 35.2461 71.6285 35.2461C70.7603 38.0361 67.5975 40.6091 67.5975 40.6091Z" fill="#AC5B47"/>
<path d="M72.6209 50.0352C71.5161 51.3704 70.1427 52.4582 68.5899 53.2282C67.0382 54.016 65.358 54.5199 63.6287 54.7162C62.7522 54.8142 61.867 54.8038 60.993 54.6852C60.12 54.5798 59.2709 54.3283 58.4814 53.9412C57.6841 53.5683 56.9757 53.0292 56.4039 52.3602C55.8356 51.7029 55.3941 50.9462 55.1016 50.1282C55.8659 51.635 57.1406 52.8214 58.6985 53.4762C60.247 54.074 61.9202 54.2765 63.5667 54.0652C65.2353 53.8765 66.8661 53.4376 68.4039 52.7632C69.1732 52.4201 69.919 52.0266 70.6365 51.5852C71.3513 51.1407 72.0166 50.621 72.6209 50.0352Z" fill="#231F20"/>
<path d="M62.4801 33.5746C62.4165 33.5795 62.3527 33.5689 62.2941 33.5436C62.0518 33.487 61.8136 33.4145 61.5809 33.3266C61.2596 33.2026 60.9274 33.1092 60.5886 33.0476C60.52 33.0832 60.4447 33.1043 60.3675 33.1094C60.2903 33.1146 60.2128 33.1037 60.14 33.0775C60.0673 33.0513 60.0007 33.0103 59.9445 32.9572C59.8883 32.904 59.8436 32.8398 59.8134 32.7686C59.7488 32.6065 59.7446 32.4265 59.8015 32.2616C59.8584 32.0966 59.9727 31.9575 60.1235 31.8696C60.148 31.8574 60.1746 31.8501 60.2018 31.8482C60.229 31.8462 60.2564 31.8497 60.2823 31.8583C60.3082 31.867 60.3322 31.8806 60.3528 31.8985C60.3735 31.9164 60.3904 31.9382 60.4026 31.9626C60.4148 31.987 60.4221 32.0136 60.424 32.0409C60.426 32.0681 60.4225 32.0955 60.4139 32.1214C60.4052 32.1473 60.3916 32.1712 60.3737 32.1919C60.3558 32.2125 60.334 32.2294 60.3096 32.2416C60.2528 32.283 60.2103 32.3411 60.1881 32.4078C60.1658 32.4745 60.1649 32.5464 60.1855 32.6136C60.2165 32.7066 60.3406 32.7376 60.4956 32.6756H60.5886C60.9844 32.7212 61.3711 32.8257 61.7359 32.9856C61.9479 33.0641 62.1656 33.1263 62.3871 33.1716C62.6142 33.1796 62.8392 33.1261 63.0383 33.0166C63.1961 32.9361 63.3625 32.8737 63.5344 32.8306C63.7802 32.7894 64.0302 32.779 64.2786 32.7996C64.5576 32.8306 64.8367 32.8616 64.9297 32.7376C65.0227 32.6136 65.0538 32.4586 65.0227 32.1486C65.0227 32.0246 65.0848 31.9316 65.2088 31.9316C65.3328 31.9316 65.4258 31.9936 65.4258 32.1176C65.4579 32.2742 65.4551 32.4359 65.4176 32.5913C65.3801 32.7467 65.3088 32.8919 65.2088 33.0166C64.9607 33.2646 64.5886 33.2336 64.2165 33.2026C64.011 33.1715 63.8019 33.1715 63.5964 33.2026C63.4589 33.2459 63.3243 33.2976 63.1933 33.3576C62.9758 33.4846 62.7315 33.559 62.4801 33.5746Z" fill="#904227"/>
<path d="M54.5438 14.9729C54.2479 14.9415 53.9622 14.8463 53.7066 14.6939C53.4624 14.5422 53.2428 14.3541 53.0555 14.1359C52.8721 13.918 52.716 13.6785 52.5903 13.4229C52.4699 13.1602 52.4065 12.8749 52.4043 12.5859C52.6214 12.7719 52.8074 12.9889 52.9934 13.1749L53.5206 13.7639L54.0167 14.3529C54.2149 14.5394 54.3917 14.7473 54.5438 14.9729Z" fill="#706E6E"/>
<path d="M53.9833 15.2518C53.6824 15.2168 53.3891 15.133 53.1151 15.0038C52.8382 14.8864 52.5858 14.7182 52.3709 14.5078C52.1412 14.3139 51.9332 14.0956 51.7508 13.8568C51.5679 13.6152 51.4313 13.342 51.3477 13.0508C51.6042 13.1917 51.8527 13.3469 52.0918 13.5158C52.3089 13.6708 52.526 13.8568 52.743 14.0428C52.9601 14.2288 53.1461 14.4148 53.3632 14.6008C53.5855 14.8024 53.7928 15.02 53.9833 15.2518Z" fill="#706E6E"/>
<path d="M44.4336 52.4531C44.0563 53.4438 43.8569 54.4932 43.8445 55.5531C43.8601 56.5924 44.0165 57.6248 44.3096 58.6221C44.5576 59.6451 44.9297 60.6371 45.2088 61.6601C45.5334 62.6841 45.7821 63.7306 45.953 64.7911L44.7747 61.8151C44.3587 60.826 44.0066 59.8113 43.7204 58.7771C43.4203 57.7198 43.3049 56.6187 43.3793 55.5221C43.4701 54.4274 43.8324 53.3726 44.4336 52.4531Z" fill="#231F20"/>
<path d="M86.8832 72.1379C91.1003 71.7659 95.9685 70.5879 98.015 67.3329C96.8677 64.5739 97.1468 64.6359 95.4413 61.4119C93.7359 58.1879 84.4336 64.5119 84.4336 64.5119C85.0985 67.1001 85.9165 69.6466 86.8832 72.1379Z" fill="#AC5B47"/>
<path d="M62.5417 37.9134C61.7075 37.8972 60.881 37.7508 60.0921 37.4794C60.0634 37.4716 60.0366 37.4581 60.0132 37.4397C59.9898 37.4214 59.9703 37.3985 59.9558 37.3725C59.9414 37.3465 59.9323 37.3179 59.9291 37.2884C59.9258 37.2588 59.9285 37.2289 59.937 37.2004C59.939 37.1725 59.9483 37.1456 59.9638 37.1224C59.9794 37.0991 60.0007 37.0803 60.0257 37.0678C60.0508 37.0553 60.0786 37.0495 60.1066 37.051C60.1345 37.0525 60.1616 37.0613 60.1851 37.0764H60.2161C62.3246 37.7584 63.689 37.4484 64.4642 37.0764C64.4886 37.0642 64.5152 37.0569 64.5424 37.055C64.5697 37.053 64.597 37.0565 64.623 37.0651C64.6489 37.0738 64.6728 37.0874 64.6935 37.1053C64.7141 37.1232 64.731 37.145 64.7432 37.1694C64.7554 37.1938 64.7627 37.2204 64.7647 37.2477C64.7666 37.2749 64.7632 37.3023 64.7545 37.3282C64.7459 37.3541 64.7322 37.378 64.7143 37.3987C64.6964 37.4193 64.6746 37.4362 64.6502 37.4484C63.994 37.7678 63.2714 37.9272 62.5417 37.9134Z" fill="#904227"/>
<path d="M52.6824 19.8078C52.6824 21.7298 53.4576 28.3018 53.7057 28.7358L53.1166 28.0848C53.1166 28.0848 53.1786 24.0548 52.0003 23.4348L51.5352 19.7148L52.6824 19.8078Z" fill="#383434"/>
<path fill-rule="evenodd" clip-rule="evenodd" d="M53.7827 23.8162C53.8711 23.7298 53.9902 23.6821 54.1138 23.6836L59.044 23.7456C59.0472 23.7457 59.0504 23.7457 59.0536 23.7459C59.6568 23.766 60.2286 24.0197 60.6481 24.4536C60.892 24.7059 61.0733 25.0075 61.1823 25.3345C61.66 25.1159 62.1817 25.0011 62.7126 25.0011C63.2501 25.0011 63.7782 25.1188 64.2608 25.3428C64.3803 25.0121 64.5743 24.7097 64.8318 24.4609C65.2657 24.0415 65.8457 23.8073 66.4493 23.8076L66.4548 23.8076L71.3851 23.8696C71.5486 23.8717 71.6913 23.9579 71.7726 24.0866H72.8366C73.0934 24.0866 73.3016 24.2948 73.3016 24.5516C73.3016 24.8084 73.0934 25.0166 72.8366 25.0166H71.8379L71.8132 27.6869L71.8131 27.6919C71.7985 28.4213 71.497 29.1156 70.9742 29.6244C70.4513 30.1332 69.749 30.4156 69.0194 30.4106L69.0172 30.4106L66.3847 30.3796C66.3841 30.3796 66.3835 30.3796 66.3829 30.3796C66.0797 30.3778 65.7798 30.3163 65.5004 30.1984C65.2204 30.0802 64.9666 29.9079 64.7536 29.6913C64.5405 29.4747 64.3724 29.2181 64.259 28.9362C64.1455 28.6544 64.089 28.3529 64.0926 28.0491L64.0926 28.0473L64.1196 26.3186C63.6954 26.0657 63.2094 25.9311 62.7126 25.9311C62.2127 25.9311 61.7238 26.0674 61.2977 26.3233L61.2705 28.0619L61.2703 28.0701C61.2502 28.6732 60.9963 29.2449 60.5624 29.6643C60.1284 30.0837 59.5484 30.3179 58.9449 30.3176L58.9397 30.3176L56.304 30.2866L56.3033 30.2866C55.9417 30.2817 55.5848 30.2051 55.2531 30.0612C54.9215 29.9173 54.6217 29.7088 54.3713 29.4481C54.1209 29.1873 53.9248 28.8794 53.7945 28.5421C53.6647 28.2063 53.6026 27.8481 53.612 27.4882L53.6348 25.0166H52.6505C52.3937 25.0166 52.1855 24.8084 52.1855 24.5516C52.1855 24.2948 52.3937 24.0866 52.6505 24.0866H53.6471C53.6608 23.9844 53.7082 23.8891 53.7827 23.8162ZM54.5686 24.6194L54.5419 27.5009L54.5417 27.5094C54.5352 27.7475 54.576 27.9846 54.6619 28.2069C54.7478 28.4291 54.8771 28.632 55.0421 28.8039C55.2072 28.9758 55.4047 29.1132 55.6234 29.2081C55.8418 29.3029 56.077 29.3534 56.3151 29.3566C56.3153 29.3566 56.3155 29.3566 56.3157 29.3566L58.9478 29.3876C59.3092 29.3872 59.6563 29.2466 59.9161 28.9955C60.1756 28.7448 60.3277 28.4033 60.3407 28.0429L60.3716 26.0671C60.3709 25.7062 60.2304 25.3596 59.9795 25.1C59.7288 24.8408 59.3875 24.6887 59.0271 24.6755L54.5686 24.6194ZM65.0534 26.0823L65.0225 28.0601C65.0225 28.0603 65.0225 28.0606 65.0225 28.0608C65.0204 28.2417 65.0542 28.4212 65.1217 28.589C65.1893 28.757 65.2896 28.91 65.4166 29.0392C65.5436 29.1683 65.695 29.2711 65.8619 29.3415C66.0289 29.412 66.2081 29.4487 66.3893 29.4496L66.3925 29.4496V29.4496L69.0259 29.4806C69.0262 29.4806 69.0266 29.4806 69.027 29.4806C69.5117 29.4837 69.9782 29.2959 70.3256 28.9579C70.6726 28.6202 70.8729 28.1596 70.8833 27.6757L70.91 24.7937L66.4462 24.7376C66.0849 24.7381 65.7378 24.8786 65.478 25.1296C65.2186 25.3804 65.0664 25.7218 65.0534 26.0823Z" fill="#C01818"/>
<path d="M74.295 25.8525C74.171 25.6355 74.078 25.4185 73.954 25.2325C73.923 25.2015 73.892 25.1395 73.861 25.1085C73.83 25.0775 73.799 25.0775 73.83 25.0775C73.861 25.0775 73.892 25.0465 73.861 25.1085C73.83 25.1705 73.83 25.1705 73.799 25.2325C73.7082 25.4429 73.6356 25.6607 73.582 25.8835C73.5159 26.1209 73.4223 26.3498 73.303 26.5655C73.2618 26.3197 73.2514 26.0698 73.272 25.8215C73.2938 25.5682 73.3458 25.3184 73.427 25.0775C73.4573 25.0088 73.4992 24.9458 73.551 24.8915C73.5824 24.8398 73.6273 24.7975 73.6807 24.7693C73.7342 24.741 73.7944 24.7278 73.8548 24.7309C73.9152 24.7341 73.9736 24.7536 74.0239 24.7873C74.0741 24.8211 74.1142 24.8678 74.14 24.9225L74.233 25.1085C74.2997 25.3505 74.3207 25.6028 74.295 25.8525Z" fill="#AC5B47"/>
<path d="M51.1943 25.513C51.153 25.2637 51.1743 25.008 51.2563 24.769C51.2873 24.707 51.2873 24.645 51.3493 24.583C51.3724 24.5341 51.407 24.4916 51.4503 24.4592C51.4935 24.4268 51.544 24.4054 51.5973 24.397C51.6629 24.3893 51.7293 24.3997 51.7894 24.427C51.8495 24.4544 51.901 24.4975 51.9383 24.552C51.9901 24.6063 52.0321 24.6693 52.0623 24.738C52.1582 24.9747 52.2107 25.2267 52.2173 25.482C52.2535 25.7297 52.243 25.9821 52.1863 26.226C52.0801 26.0043 51.987 25.7765 51.9073 25.544C51.8211 25.3318 51.7486 25.1144 51.6903 24.893C51.6593 24.831 51.6593 24.8 51.6283 24.769C51.5973 24.738 51.5973 24.769 51.6593 24.738L51.6283 24.769C51.59 24.8043 51.5585 24.8463 51.5353 24.893C51.4113 25.079 51.3183 25.296 51.1943 25.513Z" fill="#AC5B47"/>
<path d="M72.0625 16.4007C72.3106 16.2767 72.5276 16.1837 72.7757 16.0597L73.4268 15.7807L74.078 15.5017C74.2951 15.4087 74.5121 15.3157 74.7912 15.2227C74.7027 15.4812 74.5539 15.715 74.3571 15.9047C74.1554 16.0943 73.9252 16.2512 73.6749 16.3697C73.4242 16.4931 73.1482 16.5568 72.8687 16.5557C72.5916 16.5674 72.3155 16.5143 72.0625 16.4007Z" fill="#706E6E"/>
<path d="M72.4648 17.266C72.7749 17.204 73.054 17.204 73.3331 17.173L74.1393 17.08L74.9455 16.956C75.2245 16.925 75.5036 16.863 75.8137 16.832C75.6204 17.0766 75.3773 17.2774 75.1005 17.421C74.825 17.5462 74.5324 17.6298 74.2323 17.669C73.9224 17.7052 73.6088 17.6948 73.3021 17.638C72.9984 17.5789 72.7122 17.4517 72.4648 17.266Z" fill="#706E6E"/>
<path d="M76.8984 57.1003C77.4845 51.2304 79.046 45.4994 81.5186 40.1433C82.7562 37.4716 84.2188 34.9101 85.8907 32.4863C87.5911 30.0635 89.5915 27.8656 91.8442 25.9453C92.1233 25.6973 92.4333 25.4803 92.7124 25.2633C92.9915 25.0463 93.3015 24.7983 93.6116 24.6123L94.5419 23.9923C94.6969 23.8993 94.8519 23.7753 95.007 23.6823L95.5031 23.4033C95.8442 23.2173 96.1543 23.0313 96.4953 22.8763L97.5186 22.4113C97.6736 22.3493 97.8597 22.2563 98.0147 22.1943L98.5419 22.0083C98.8864 21.8657 99.2384 21.7415 99.5961 21.6363C102.454 20.7462 105.482 20.5443 108.433 21.0473L109.519 21.2643C109.891 21.3263 110.232 21.4503 110.604 21.5433C110.976 21.6363 111.317 21.7293 111.689 21.8533C112.038 21.9895 112.38 22.1447 112.712 22.3183C114.057 22.9895 115.266 23.9039 116.278 25.0153C117.316 26.1123 118.118 27.4099 118.635 28.8283C119.144 30.2588 119.273 31.7972 119.007 33.2923V33.2613C118.912 34.3743 118.55 35.4481 117.953 36.3923C117.351 37.319 116.596 38.1367 115.72 38.8103C113.951 40.1011 111.899 40.9513 109.736 41.2903C108.66 41.4759 107.564 41.5072 106.48 41.3833C105.388 41.289 104.324 40.9837 103.348 40.4843C102.366 39.9939 101.579 39.1853 101.116 38.1903C100.688 37.1828 100.579 36.0682 100.805 34.9973C100.641 36.0581 100.781 37.1436 101.209 38.1283C101.696 39.0759 102.48 39.838 103.441 40.2983C104.402 40.7643 105.445 41.0381 106.511 41.1043C107.568 41.1773 108.629 41.1252 109.674 40.9493C111.778 40.6005 113.767 39.7498 115.472 38.4693C116.308 37.8258 117.022 37.0385 117.581 36.1443C118.116 35.2463 118.444 34.2402 118.542 33.1993C118.764 31.7824 118.626 30.3323 118.139 28.9833C117.652 27.6264 116.88 26.3896 115.875 25.3563C114.895 24.2949 113.729 23.4227 112.433 22.7833C112.123 22.5973 111.782 22.5043 111.472 22.3493C111.126 22.238 110.774 22.1449 110.418 22.0703C110.075 21.955 109.722 21.8719 109.364 21.8223L108.309 21.6363L107.782 21.5433L107.255 21.4813L106.17 21.3883H104.557C104.371 21.3883 104.185 21.4193 104.03 21.4193L102.945 21.5123C102.591 21.5565 102.239 21.6186 101.891 21.6983C101.178 21.7913 100.495 22.0393 99.7822 22.1943C99.4411 22.2873 99.1 22.4423 98.7589 22.5663L98.2628 22.7523C98.1077 22.8143 97.9217 22.9073 97.7667 22.9693L96.7744 23.4033C96.4643 23.5583 96.1233 23.7443 95.8132 23.9303L95.3481 24.1783L94.8829 24.4573L93.9837 25.0463C93.6736 25.2633 93.3946 25.4803 93.1155 25.6973C92.8364 25.9143 92.5264 26.1313 92.2473 26.3793C90.0154 28.2536 88.0259 30.3989 86.3248 32.7653C84.6162 35.1333 83.1318 37.6552 81.8907 40.2983C80.6465 42.9454 79.5997 45.6809 78.7589 48.4823C77.8849 51.2943 77.2623 54.1782 76.8984 57.1003Z" fill="#4EDFBC"/>
<path d="M48.435 43.4317C48.0763 40.5216 47.4641 37.6483 46.6055 34.8447C45.7647 32.0432 44.7179 29.3078 43.4738 26.6607C42.2208 24.0238 40.737 21.503 39.0396 19.1277C37.3473 16.7449 35.357 14.5884 33.1172 12.7106C32.8415 12.4664 32.5516 12.2387 32.249 12.0286C31.9699 11.8116 31.6598 11.5946 31.3807 11.3776L30.4815 10.7886L30.0164 10.5096L29.5513 10.2616C29.2412 10.0756 28.9311 9.92065 28.59 9.73465L27.5978 9.26965C27.4427 9.20765 27.2567 9.11465 27.1017 9.05265L26.6055 8.86665L25.5823 8.49465C24.8905 8.28541 24.1863 8.11975 23.4738 7.99865L22.4195 7.81265L21.3342 7.75065C21.1482 7.75065 20.9621 7.71965 20.8071 7.71965H19.1947L18.1094 7.81265L17.5823 7.87465L17.0551 7.96765L16.0009 8.15365C15.6288 8.21565 15.2877 8.33965 14.9466 8.40165L13.8924 8.68065C13.5823 8.83565 13.2412 8.92865 12.9311 9.11465C11.6455 9.7699 10.4814 10.6401 9.48926 11.6876C8.49483 12.7294 7.72447 13.9638 7.22569 15.3147C6.75092 16.6664 6.61257 18.1134 6.82259 19.5307C6.91015 20.5736 7.23924 21.5818 7.78383 22.4757C8.33376 23.3766 9.04917 24.1655 9.89236 24.8007C11.5946 26.0866 13.585 26.9379 15.6908 27.2807C16.7337 27.4713 17.7971 27.5234 18.8536 27.4357C19.9196 27.3695 20.9624 27.0957 21.9234 26.6297C22.8846 26.1694 23.6687 25.4073 24.1559 24.4597C24.5983 23.4792 24.7386 22.3892 24.559 21.3287C24.7509 22.4013 24.6436 23.506 24.2489 24.5217C23.7763 25.5102 22.9919 26.3162 22.0164 26.8157C21.0405 27.3151 19.9769 27.6204 18.8846 27.7147C17.7998 27.8232 16.7056 27.7919 15.6288 27.6217C13.4596 27.3023 11.4034 26.4502 9.6443 25.1416C8.75417 24.4837 7.99665 23.6633 7.41174 22.7237C6.81449 21.7795 6.45291 20.7057 6.35747 19.5927V19.6236C6.09189 18.1286 6.22012 16.5901 6.72957 15.1596C7.23942 13.7377 8.04228 12.4387 9.08616 11.3466C10.1044 10.2422 11.312 9.32884 12.652 8.64965C12.9931 8.46365 13.3342 8.33965 13.6753 8.18465C14.0316 8.06295 14.3938 7.95949 14.7606 7.87465C15.1327 7.78165 15.4738 7.65765 15.8458 7.59565L16.9311 7.37865C19.8684 6.84881 22.8905 7.0403 25.7373 7.93665C26.0784 8.06065 26.4505 8.18465 26.7916 8.30865L27.3187 8.49465C27.5048 8.55665 27.6598 8.64965 27.8148 8.71165L28.8381 9.17665C29.1792 9.33165 29.4893 9.54865 29.8303 9.70365L30.3265 9.98265C30.4885 10.0751 30.6439 10.1787 30.7916 10.2926L31.7218 10.9126C32.0319 11.1296 32.311 11.3466 32.621 11.5636C32.9236 11.7737 33.2136 12.0014 33.4893 12.2456C35.7572 14.1502 37.7595 16.3502 39.4427 18.7866C41.1374 21.1961 42.6012 23.7597 43.8148 26.4437C46.2979 31.8069 47.8598 37.5498 48.435 43.4317Z" fill="#6161FF"/>
<path d="M44.1251 56.8239C43.0235 54.2379 41.7062 51.7491 40.1871 49.3839C38.6847 47.0102 36.9161 44.8157 34.9158 42.8429C32.9443 40.8616 30.6607 39.2174 28.1561 37.9759C26.9017 37.3753 25.5795 36.9278 24.2181 36.6429C22.8642 36.3488 21.4789 36.2239 20.0941 36.2709H20.1251C18.9645 36.4185 17.8403 36.7756 16.8073 37.3249C15.7709 37.8735 14.8373 38.5972 14.0476 39.4639C13.263 40.3439 12.6149 41.3366 12.1251 42.4089C11.6265 43.4815 11.282 44.619 11.1019 45.7879C10.7157 48.1426 10.9949 50.5584 11.9081 52.7629C12.3702 53.8618 13.0091 54.8775 13.7995 55.7699C14.5993 56.6638 15.5424 57.4181 16.5902 58.0019C14.4043 56.9186 12.6619 55.1109 11.66 52.8869C10.9258 51.2052 10.5469 49.3899 10.5469 47.5549C10.5469 45.72 10.9258 43.9047 11.66 42.2229C12.1541 41.0916 12.8239 40.0454 13.6445 39.1229C14.4535 38.1926 15.4321 37.4246 16.5282 36.8599C17.622 36.2801 18.8071 35.8921 20.0321 35.7129H20.0631C22.9392 35.6163 25.7944 36.2341 28.3732 37.5109C30.9283 38.7801 33.2463 40.4788 35.2259 42.5329C37.1925 44.5795 38.929 46.8353 40.4042 49.2599C41.9147 51.6392 43.1623 54.1754 44.1251 56.8239Z" fill="#F74326"/>
<path d="M16.9932 58.4954C18.1687 58.7117 19.3674 58.7743 20.5591 58.6814C21.7305 58.6 22.8716 58.2725 23.9079 57.7204C24.6599 57.3036 25.3199 56.7392 25.8482 56.061C26.3765 55.3828 26.7623 54.6049 26.9824 53.7739C27.2025 52.943 27.2524 52.0761 27.129 51.2254C27.0056 50.3747 26.7116 49.5577 26.2645 48.8234C25.6701 47.8405 24.8102 47.0454 23.7839 46.5294C22.7368 46.0146 21.5992 45.7093 20.435 45.6304C19.2408 45.575 18.0442 45.6582 16.8691 45.8784C18.0315 45.5522 19.2285 45.3649 20.435 45.3204C21.6661 45.3144 22.8835 45.579 24.0009 46.0954C25.1368 46.6281 26.1028 47.4651 26.7916 48.5134C27.4543 49.5833 27.8079 50.8157 27.8133 52.074C27.8188 53.3324 27.4759 54.5678 26.8226 55.6434C26.1729 56.7137 25.2391 57.5829 24.125 58.1544C23.0127 58.6931 21.7949 58.979 20.5591 58.9914C19.3538 58.9831 18.1549 58.8163 16.9932 58.4954Z" fill="#F74326"/>
<path d="M88.7129 43.0583C89.3489 41.063 90.313 39.1877 91.5656 37.5093C92.8339 35.8328 94.35 34.3589 96.0617 33.1383C97.7698 31.9152 99.651 30.9539 101.643 30.2863C103.631 29.6232 105.719 29.3085 107.814 29.3563C105.755 29.5521 103.732 30.0212 101.798 30.7513C99.8819 31.4867 98.0685 32.4661 96.4028 33.6653C93.0549 36.0626 90.4017 39.3034 88.7129 43.0583Z" fill="#E01919"/>
<path d="M34.2379 50.4016L30.9746 51.2812L31.8949 54.6934L35.1582 53.8137L34.2379 50.4016Z" fill="#FFA63B"/>
<path d="M97.7438 41.3547L94.4805 42.2344L95.4007 45.6465L98.664 44.7668L97.7438 41.3547Z" fill="#FFA63B"/>
<path d="M76.03 36.2878L75.457 39.1133L78.1313 39.6553L78.7043 36.8298L76.03 36.2878Z" fill="#E01919"/>
<path d="M33.944 31.8659L33.3711 34.6914L36.0454 35.2334L36.6183 32.4079L33.944 31.8659Z" fill="#E01919"/>
<path d="M43.3679 45.5924L42.7949 48.418L45.4692 48.96L46.0422 46.1345L43.3679 45.5924Z" fill="#6161FF"/>
<path d="M83.8267 24.8543L83.25 27.6797L85.9241 28.2253L86.5009 25.4L83.8267 24.8543Z" fill="#6161FF"/>
<path d="M33.7676 67.3633C27.9071 75.0823 25.8916 81.4373 25.5195 90.2723L35.0699 88.0713C35.0699 88.0713 39.38 81.1273 42.6048 75.1133C39.6901 72.4473 36.7443 69.8433 33.7676 67.3633Z" fill="#C47A5B"/>
<path d="M3.07031 98.1483C3.07031 89.8403 29.3649 83.1133 61.799 83.1133C94.2331 83.1133 120.528 89.8713 120.528 98.1483V102.736C120.528 111.044 94.2331 117.833 61.799 117.833C29.3649 117.833 3.07031 111.013 3.07031 102.674V98.1483Z" fill="#706E6E"/>
<path d="M61.7053 113.058C94.1402 113.058 120.434 106.327 120.434 98.0233C120.434 89.7197 94.1402 82.9883 61.7053 82.9883C29.2703 82.9883 2.97656 89.7197 2.97656 98.0233C2.97656 106.327 29.2703 113.058 61.7053 113.058Z" fill="#D1CCCC"/>
<path d="M88.4952 71.6422C86.2006 71.6732 76.7743 61.5362 75.658 58.0332C73.6115 51.9262 82.2936 50.0352 82.2936 50.0352C88.0611 50.6862 94.1696 57.3822 97.3014 63.1172C98.6657 65.5972 94.6347 69.4412 88.4952 71.6422Z" fill="#383434"/>
<path d="M86.0163 51.7695C85.6135 54.416 85.4269 57.0908 85.4583 59.7675C85.4583 62.4335 85.5823 65.1305 85.4273 67.8585C85.4273 67.887 85.4216 67.9152 85.4107 67.9416C85.3998 67.9679 85.3839 67.9918 85.3637 68.012C85.3436 68.0321 85.3196 68.0481 85.2933 68.059C85.267 68.0699 85.2387 68.0755 85.2103 68.0755C85.1818 68.0755 85.1535 68.0699 85.1272 68.059C85.1009 68.0481 85.077 68.0321 85.0568 68.012C85.0367 67.9918 85.0207 67.9679 85.0098 67.9416C84.9989 67.9152 84.9933 67.887 84.9933 67.8585C85.2103 65.2235 84.8383 62.6195 84.9313 59.9225C84.9623 57.2255 85.4893 54.4045 86.0163 51.7695Z" fill="#231F20"/>
<path d="M99.7202 88.6911C98.0768 88.6911 94.7279 90.1171 91.6892 91.7291L90.4489 88.7531C90.3542 88.511 90.1875 88.3038 89.9712 88.1597C89.7549 88.0155 89.4995 87.9413 89.2396 87.9471H36.7744C36.1853 86.8931 33.9217 86.0871 31.193 86.1181C28.0302 86.1181 25.4876 86.5521 25.3016 87.5441C25.2085 88.3501 27.5031 90.7681 30.0458 92.5351L26.976 102.455C26.9228 102.649 26.9143 102.852 26.9512 103.049C26.988 103.246 27.0693 103.433 27.1887 103.594C27.3082 103.755 27.4628 103.887 27.6408 103.98C27.8189 104.072 28.0156 104.124 28.2163 104.129H94.852C95.0641 104.13 95.2733 104.08 95.4618 103.982C95.6502 103.885 95.8123 103.743 95.9341 103.57C96.056 103.396 96.134 103.196 96.1616 102.985C96.1891 102.775 96.1653 102.561 96.0923 102.362L94.976 99.6651C96.7149 98.4002 98.3341 96.9786 99.8132 95.4181C102.201 92.9381 105.581 90.3651 105.581 88.8461C105.674 88.0711 101.116 87.4821 99.7202 88.6911Z" fill="#B8B2B2"/>
<path d="M25.7988 86.7366C26.6981 89.6196 29.4888 89.7126 29.4888 90.2706C29.3957 92.5646 29.0546 94.7656 30.574 96.3776C32.0934 97.9896 37.8919 99.1056 40.3105 98.4236C42.7291 97.7416 46.2329 82.3966 38.7911 81.1256C26.0779 79.0486 25.7988 86.7366 25.7988 86.7366Z" fill="#C47A5B"/>
<path d="M99.5962 82.3978C94.976 78.8948 81.2706 88.1328 78.759 90.2718C76.2473 92.4108 77.3016 99.8818 77.3016 99.8818L84.4024 100.688C84.4024 100.688 93.7357 101.866 94.6039 96.5028C95.5032 90.7678 109.891 90.1788 99.5962 82.3978Z" fill="#C47A5B"/>
<path d="M100.993 83.1408C100.923 83.13 100.858 83.0975 100.807 83.0478C99.7219 81.8698 96.5591 80.4128 92.8382 81.5288C92.7889 81.5453 92.735 81.5415 92.6885 81.5182C92.642 81.495 92.6066 81.4542 92.5901 81.4048C92.5737 81.3555 92.5775 81.3017 92.6008 81.2552C92.624 81.2086 92.6648 81.1733 92.7142 81.1568C96.6522 79.9788 99.939 81.5598 101.117 82.7998C101.139 82.8193 101.157 82.8432 101.169 82.8699C101.181 82.8966 101.187 82.9256 101.187 82.9548C101.187 82.9841 101.181 83.013 101.169 83.0398C101.157 83.0665 101.139 83.0904 101.117 83.1098C101.148 83.1408 101.086 83.1408 100.993 83.1408Z" fill="#6A3124"/>
<path d="M36.404 84.008C36.3338 83.9971 36.2688 83.9646 36.218 83.915C35.1327 82.737 31.9699 81.28 28.249 82.396C28.2245 82.4043 28.1987 82.4076 28.173 82.4058C28.1473 82.404 28.1222 82.3972 28.0991 82.3857C28.0761 82.3741 28.0555 82.3582 28.0386 82.3387C28.0218 82.3192 28.009 82.2965 28.0009 82.272C27.9881 82.2227 27.9936 82.1704 28.0164 82.1248C28.0392 82.0792 28.0778 82.0434 28.1249 82.024C32.0629 80.846 35.3498 82.427 36.528 83.667C36.5499 83.6865 36.5674 83.7104 36.5793 83.7371C36.5913 83.7638 36.5975 83.7928 36.5975 83.822C36.5975 83.8513 36.5913 83.8802 36.5793 83.9069C36.5674 83.9337 36.5499 83.9575 36.528 83.977C36.528 84.008 36.497 84.008 36.404 84.008Z" fill="#6A3124"/>
<path d="M92.7138 63.1172H31.4735C31.176 63.1156 30.8813 63.1746 30.6073 63.2905C30.3334 63.4064 30.0859 63.5769 29.8799 63.7915C29.6739 64.0061 29.5138 64.2604 29.4093 64.5389C29.3048 64.8173 29.258 65.1141 29.2719 65.4112L30.4502 102.022C30.4538 102.132 30.4792 102.241 30.5248 102.341C30.5705 102.441 30.6356 102.531 30.7163 102.606C30.797 102.681 30.8918 102.739 30.9952 102.777C31.0985 102.816 31.2084 102.833 31.3184 102.828H92.8378C93.0571 102.827 93.2678 102.743 93.4285 102.594C93.5892 102.445 93.6882 102.241 93.7061 102.022L94.8843 65.4112C94.899 65.1165 94.8538 64.8219 94.7515 64.5451C94.6492 64.2684 94.4919 64.0152 94.2891 63.8008C94.0863 63.5864 93.8421 63.4154 93.5714 63.2979C93.3007 63.1804 93.0089 63.1189 92.7138 63.1172Z" fill="#B8B2B2"/>
<path d="M92.7138 63.9845H31.4735C31.176 63.9829 30.8813 64.0419 30.6073 64.1578C30.3334 64.2737 30.0859 64.4442 29.8799 64.6588C29.6739 64.8734 29.5138 65.1277 29.4093 65.4061C29.3048 65.6846 29.258 65.9814 29.2719 66.2785L30.4502 102.89C30.4538 103 30.4792 103.108 30.5248 103.208C30.5705 103.308 30.6356 103.398 30.7163 103.473C30.797 103.548 30.8918 103.607 30.9952 103.645C31.0985 103.683 31.2084 103.7 31.3184 103.696H92.8378C93.0571 103.694 93.2678 103.61 93.4285 103.461C93.5892 103.312 93.6882 103.108 93.706 102.89L94.8843 66.2785C94.904 65.9826 94.8623 65.6859 94.7618 65.4069C94.6613 65.1279 94.5043 64.8727 94.3005 64.6573C94.0966 64.4419 93.8505 64.271 93.5774 64.1552C93.3044 64.0394 93.0104 63.9813 92.7138 63.9845Z" fill="#706E6E"/>
<path opacity="0.7" d="M93.7363 101.805H30.4805V102.239H93.7363V101.805Z" fill="#B8B2B2"/>
<path d="M27.7528 93.6805C27.7528 94.9205 22.7915 96.5635 19.7528 96.5635C16.714 96.5635 14.3574 95.6645 14.3574 94.3935C14.3574 92.6575 19.1946 91.3555 22.2334 91.3555C25.2722 91.3555 27.7528 92.4405 27.7528 93.6805Z" fill="#B8B2B2"/>
<path d="M13.1465 80.8164C13.1465 80.8164 14.3248 93.6504 14.3868 94.4254C14.4798 95.3244 16.3713 96.0994 18.8519 96.0994C21.3325 96.0994 23.317 95.3554 23.317 94.4254L24.5573 80.8164H13.1465Z" fill="#F2F2F2"/>
<path d="M24.8997 79.7315C24.8997 78.4915 22.171 77.4375 18.8532 77.4375C15.5353 77.4375 12.8066 78.4605 12.8066 79.7315V81.3745C12.8066 82.6145 15.5353 83.6685 18.8532 83.6685C22.171 83.6685 24.8997 82.6455 24.8997 81.3745V79.7315Z" fill="#DEDBDB"/>
<path d="M18.8532 82.0255C22.1925 82.0255 24.8997 80.9984 24.8997 79.7315C24.8997 78.4646 22.1925 77.4375 18.8532 77.4375C15.5138 77.4375 12.8066 78.4646 12.8066 79.7315C12.8066 80.9984 15.5138 82.0255 18.8532 82.0255Z" fill="#F2F2F2"/>
<path d="M24.5275 78.3072C24.5275 77.1292 22.0159 76.1992 18.9151 76.1992C15.8144 76.1992 13.3027 77.1602 13.3027 78.3072V79.3922C13.3027 80.5702 15.8144 81.5002 18.9151 81.5002C22.0159 81.5002 24.5275 80.5392 24.5275 79.3922V78.3072Z" fill="#DEDBDB"/>
<path d="M18.8839 80.4152C21.9835 80.4152 24.4963 79.4714 24.4963 78.3072C24.4963 77.143 21.9835 76.1992 18.8839 76.1992C15.7842 76.1992 13.2715 77.143 13.2715 78.3072C13.2715 79.4714 15.7842 80.4152 18.8839 80.4152Z" fill="white"/>
<path d="M18.9771 79.7314C16.1244 79.7314 14.45 78.8324 14.0469 78.3364C14.45 77.8714 16.1244 76.9414 18.9771 76.9414C21.8298 76.9414 23.5042 77.8404 23.9073 78.3364C23.4732 78.8014 21.8298 79.7314 18.9771 79.7314Z" fill="#E8E5E5"/>
<path d="M17.9531 77.5935C18.0771 77.5935 18.1701 77.5935 18.2011 77.5625C18.1214 77.5896 18.037 77.6001 17.9531 77.5935Z" fill="#D1CCCC"/>
<path d="M23.753 78.77C22.7178 77.9355 21.4517 77.4378 20.1251 77.344H19.8151C19.2555 77.3405 18.6963 77.3716 18.1406 77.437C18.0476 77.437 17.9546 77.468 17.8926 77.468C18.9916 78.1578 20.0478 78.9135 21.0554 79.731C22.3267 79.545 23.2569 79.173 23.753 78.77Z" fill="#D1CCCC"/>
<path d="M16.5571 76.7578C14.7276 77.0678 13.6113 77.7188 13.6113 78.3078C13.6113 79.1138 15.8749 80.0748 18.8826 80.0748C19.6406 80.0655 20.3969 80.0034 21.1462 79.8888C19.7102 78.7141 18.1747 77.6665 16.5571 76.7578Z" fill="#F2F2F2"/>
<path d="M16.5283 76.7563C14.7608 77.0663 13.6445 77.7173 13.6445 78.3063C13.6445 79.1123 15.9081 80.0733 18.9159 80.0733C19.6738 80.064 20.4301 80.0019 21.1794 79.8873C21.7543 79.8003 22.3165 79.6442 22.8538 79.4223L17.8306 76.5703C17.3927 76.6019 16.9575 76.664 16.5283 76.7563Z" fill="#F2F2F2"/>
<path d="M18.8839 76.757C21.9537 76.757 23.9382 77.718 23.9382 78.307C23.9382 78.896 21.8916 79.857 18.8839 79.857C15.8761 79.857 13.8296 78.896 13.8296 78.307C13.8296 77.718 15.8141 76.757 18.8839 76.757ZM18.8839 76.168C15.7831 76.168 13.2715 77.129 13.2715 78.276C13.2715 79.423 15.7831 80.384 18.8839 80.384C21.9847 80.384 24.4963 79.423 24.4963 78.276C24.4963 77.129 22.0157 76.168 18.8839 76.168Z" fill="white"/>
<path d="M18.8521 87.7597C16.2475 87.7597 14.1079 87.0777 13.6738 86.1167C13.6738 86.1167 13.8909 88.7517 14.1079 91.0767C14.1389 91.8207 14.232 92.5027 14.294 93.0607C15.1622 93.7427 16.9296 94.2697 18.8831 94.2697C20.8366 94.2697 22.6041 93.8047 23.4723 93.0607L23.6583 91.0767L24.1234 86.0547C23.6583 87.0157 21.4878 87.7597 18.8521 87.7597Z" fill="#DEDBDB"/>
<path d="M18.8534 87.3255C16.3107 87.3255 14.1402 86.6435 13.613 85.7755C13.613 85.7445 13.582 85.7755 13.582 85.7755C13.613 86.3335 13.8301 88.6275 14.0161 90.7355C14.0471 91.4175 14.1402 92.0685 14.2022 92.6885C14.2012 92.7248 14.2091 92.7607 14.2253 92.7932C14.2416 92.8256 14.2656 92.8536 14.2952 92.8745C15.1944 93.5565 16.9309 94.0525 18.8844 94.0525C20.8378 94.0525 22.6053 93.5875 23.5045 92.8745C23.5355 92.8435 23.5355 92.8435 23.5355 92.7815L23.7216 90.8285L24.1867 85.8065C24.1867 85.7755 24.1557 85.7755 24.1557 85.8065C23.5665 86.6435 21.396 87.3255 18.8534 87.3255Z" fill="#FFA63B"/>
<path d="M5.92322 98.1452L12.5279 95.1072C12.931 94.9832 13.6442 95.4482 13.7682 95.3242L27.0085 97.0602C28.3108 97.1532 28.962 97.4632 28.838 97.5872L23.6597 101.307C23.4397 101.389 23.1975 101.389 22.9775 101.307L7.41159 98.8582C5.8302 98.4862 5.48911 98.4552 5.92322 98.1452Z" fill="#B8B2B2"/>
<path d="M22.9143 100.593L6.4802 98.0509C6.0771 98.0199 6.01508 96.8109 6.35617 96.6249L11.9376 94.2999C12.1604 94.1644 12.427 94.12 12.6817 94.1759L27.9996 96.1599C28.4027 96.1909 28.4647 97.3689 28.1236 97.5549L23.7515 100.407C23.6316 100.493 23.4957 100.553 23.3518 100.585C23.208 100.617 23.0592 100.62 22.9143 100.593Z" fill="#383434"/>
<path d="M23.008 99.1679L7.53516 96.8739L12.4964 94.7659C12.5769 94.7422 12.6606 94.7317 12.7445 94.7349H12.8375L27.101 96.5949C27.1941 96.5949 27.1941 96.6879 27.1321 96.7189L23.4111 99.1059C23.3801 99.1369 23.2871 99.1369 23.2251 99.1989C23.2251 99.1679 23.039 99.1679 23.008 99.1679Z" fill="#706E6E"/>
<path d="M12.4951 95.3251L10.6037 96.2241C10.5726 96.2241 10.5106 96.2551 10.4796 96.2241L9.39435 96.0071C9.36334 96.0071 9.36334 95.9761 9.39435 95.9141L11.5649 94.9531H11.5959L12.5571 95.2011C12.5261 95.2941 12.5261 95.3251 12.4951 95.3251Z" fill="#383434"/>
<path d="M27.1933 96.6574L23.4413 99.0754C23.2488 99.1686 23.0325 99.201 22.8212 99.1684L20.9297 98.8584L25.2398 96.3164L27.1312 96.5644C27.2243 96.5954 27.2863 96.6574 27.1933 96.6574Z" fill="#E01919"/>
<path d="M23.1634 99.4779H23.0704L6.4192 96.8739C6.395 96.8725 6.37219 96.8622 6.35505 96.8451C6.33791 96.8279 6.32764 96.8051 6.32617 96.781C6.32617 96.75 6.32617 96.6879 6.35718 96.6879L12.2797 94.1769C12.3002 94.1646 12.3248 94.1609 12.3481 94.1668C12.3714 94.1726 12.3914 94.1874 12.4037 94.2079C12.416 94.2285 12.4197 94.2531 12.4139 94.2764C12.4081 94.2996 12.3932 94.3196 12.3727 94.3319L6.76028 96.7189L23.0704 99.2299C23.1257 99.2386 23.1823 99.2347 23.236 99.2186C23.2896 99.2025 23.339 99.1746 23.3804 99.1369L27.7525 96.3159C27.7835 96.285 27.8456 96.3159 27.8766 96.3469C27.9076 96.3779 27.8766 96.4399 27.8456 96.471L23.4735 99.2919C23.4477 99.3515 23.404 99.4014 23.3484 99.4348C23.2927 99.4682 23.228 99.4833 23.1634 99.4779Z" fill="#A19C9C"/>
<path d="M11.239 95.6227C11.2408 95.5714 11.1312 95.5261 10.9943 95.5215C10.8574 95.517 10.745 95.5549 10.7433 95.6063C10.7416 95.6576 10.8512 95.7029 10.9881 95.7074C11.125 95.712 11.2373 95.674 11.239 95.6227Z" fill="#D1CCCC"/>
</g>
</g>
<defs>
<clipPath id="clip0_559_21115">
<rect width="124" height="124" fill="white"/>
</clipPath>
<clipPath id="clip1_559_21115">
<rect width="124" height="124" fill="white"/>
</clipPath>
</defs>
</svg>
