<svg width="33" height="33" viewBox="0 0 33 33" fill="none" xmlns="http://www.w3.org/2000/svg">
<rect x="1.60938" y="1.5" width="30" height="30" rx="15" fill="#FFD663"/>
<path fill-rule="evenodd" clip-rule="evenodd" d="M1.68344 15C1.63445 15.4934 1.60938 15.9938 1.60938 16.5C1.60938 24.7843 8.3251 31.5 16.6094 31.5C24.8936 31.5 31.6094 24.7843 31.6094 16.5C31.6094 15.9937 31.5843 15.4934 31.5353 15C30.7827 22.58 24.3874 28.5 16.6094 28.5C8.83135 28.5 2.43602 22.58 1.68344 15Z" fill="#FFD04C"/>
<path fill-rule="evenodd" clip-rule="evenodd" d="M12.2934 23.4484C12.8174 23.6231 13.3837 23.3399 13.5583 22.816C13.9607 21.6088 15.0452 20.4997 16.6096 20.4997C18.1741 20.4997 19.2586 21.6088 19.661 22.816C19.8356 23.3399 20.4019 23.6231 20.9259 23.4484C21.4498 23.2738 21.733 22.7074 21.5583 22.1835C20.9607 20.3907 19.2557 18.4997 16.6096 18.4997C13.9636 18.4997 12.2586 20.3907 11.661 22.1835C11.4863 22.7074 11.7695 23.2738 12.2934 23.4484Z" fill="#52565F"/>
<circle cx="11.6094" cy="13.5" r="2" fill="#52565F"/>
<circle cx="21.6094" cy="13.5" r="2" fill="#52565F"/>
</svg>
