<svg width="230" height="230" viewBox="0 0 230 230" fill="none" xmlns="http://www.w3.org/2000/svg">
<g clip-path="url(#clip0_1810_1888)">
<mask id="mask0_1810_1888" style="mask-type:luminance" maskUnits="userSpaceOnUse" x="0" y="0" width="230" height="230">
<path d="M230 0H0V230H230V0Z" fill="white"/>
</mask>
<g mask="url(#mask0_1810_1888)">
<mask id="mask1_1810_1888" style="mask-type:luminance" maskUnits="userSpaceOnUse" x="0" y="0" width="230" height="230">
<path d="M230 0H0V230H230V0Z" fill="white"/>
</mask>
<g mask="url(#mask1_1810_1888)">
<path d="M114.908 210.5C167.653 210.5 210.41 167.743 210.41 114.998C210.41 62.2531 167.653 19.4961 114.908 19.4961C62.1632 19.4961 19.4062 62.2531 19.4062 114.998C19.4062 167.743 62.1632 210.5 114.908 210.5V210.5Z" fill="#F9F1EC"/>
<path d="M115 181.164C150.271 181.164 178.865 152.569 178.865 117.299C178.865 82.0283 150.271 53.4336 115 53.4336C79.7295 53.4336 51.1348 82.0283 51.1348 117.299C51.1348 152.569 79.7295 181.164 115 181.164Z" fill="#FAC8C4"/>
<path d="M115 178.863C150.271 178.863 178.865 150.269 178.865 114.998C178.865 79.7276 150.271 51.1328 115 51.1328C79.7295 51.1328 51.1348 79.7276 51.1348 114.998C51.1348 150.269 79.7295 178.863 115 178.863Z" fill="#39DABA"/>
<path d="M114.999 174.604C82.132 174.604 55.3945 147.866 55.3945 114.999C55.3945 82.132 82.132 55.3945 114.999 55.3945C147.866 55.3945 174.604 82.132 174.604 114.999C174.604 147.866 147.866 174.604 114.999 174.604V174.604ZM114.999 56.556C82.7703 56.556 56.556 82.776 56.556 114.999C56.556 147.222 82.776 173.442 114.999 173.442C147.222 173.442 173.442 147.222 173.442 114.999C173.442 82.776 147.222 56.556 114.999 56.556V56.556Z" fill="#F9F1EC"/>
</g>
</g>
<path d="M101.09 139.215C96.9274 139.215 92.7586 137.674 89.5559 134.586L76.4746 121.965L78.8724 119.481L91.9536 132.102C97.0941 137.059 105.374 136.978 110.417 131.924L151.368 90.8516L153.812 93.2896L112.861 134.362C109.641 137.593 105.363 139.215 101.09 139.215V139.215Z" fill="white"/>
</g>
<defs>
<clipPath id="clip0_1810_1888">
<rect width="230" height="230" fill="white"/>
</clipPath>
</defs>
</svg>
