<svg width="74" height="74" viewBox="0 0 32 32" fill="none" xmlns="http://www.w3.org/2000/svg">
<path d="M15.4167 30H16.5833C22.93 30 26.0917 30 28.0517 28.04C30 26.08 30 22.9067 30 16.5833V15.3933C30 9.09333 30 5.92 28.0517 3.96C26.0917 2 22.9183 2 16.5833 2H15.4167C9.07 2 5.90833 2 3.94833 3.96C2 5.92 2 9.09333 2 15.4167V16.6067C2 22.9067 2 26.08 3.96 28.04C5.92 30 9.09333 30 15.4167 30Z" fill="white"/>
<path d="M17.3319 14.928L22.5437 9H21.3087L16.7833 14.1472L13.1688 9H9L14.4657 16.7835L9 23H10.2351L15.0141 17.5643L18.8312 23H23L17.3316 14.928H17.3319ZM15.6403 16.8521L15.0865 16.077L10.6801 9.90978H12.5772L16.1331 14.887L16.6869 15.662L21.3093 22.1316H19.4122L15.6403 16.8524V16.8521Z" fill="black"/>
</svg>
